<svg width="24" height="23" viewBox="0 0 24 23" fill="none" xmlns="http://www.w3.org/2000/svg">
<path d="M9.2793 11.145C10.1201 11.145 10.9062 11.2339 11.6377 11.4116C12.376 11.5825 13.0493 11.8149 13.6577 12.1089C12.9263 12.7241 12.3418 13.4795 11.9043 14.375C11.4736 15.2637 11.2583 16.2207 11.2583 17.2461C11.2583 17.8135 11.3267 18.3535 11.4634 18.8662H2.89111C2.05029 18.8662 1.45898 18.7397 1.11719 18.4868C0.782227 18.2407 0.614746 17.8818 0.614746 17.4102C0.614746 16.7471 0.816406 16.0532 1.21973 15.3286C1.62305 14.604 2.20068 13.9238 2.95264 13.2881C3.70459 12.6523 4.61377 12.1362 5.68018 11.7397C6.74658 11.3433 7.94629 11.145 9.2793 11.145ZM9.26904 9.31982C8.53076 9.31982 7.84717 9.11816 7.21826 8.71484C6.58936 8.31152 6.0835 7.76807 5.70068 7.08447C5.32471 6.39404 5.13672 5.62158 5.13672 4.76709C5.13672 3.93311 5.32471 3.18115 5.70068 2.51123C6.0835 1.83447 6.58936 1.30127 7.21826 0.911621C7.84717 0.521973 8.53076 0.327148 9.26904 0.327148C10.0142 0.327148 10.7012 0.525391 11.3301 0.921875C11.959 1.31836 12.4614 1.85498 12.8374 2.53174C13.2202 3.20166 13.4116 3.95361 13.4116 4.7876C13.4116 5.63525 13.2202 6.40088 12.8374 7.08447C12.4614 7.76807 11.959 8.31152 11.3301 8.71484C10.708 9.11816 10.021 9.31982 9.26904 9.31982ZM17.9951 22.5371C17.2705 22.5371 16.5903 22.4004 15.9546 22.127C15.3188 21.8535 14.7583 21.4707 14.2729 20.9785C13.7876 20.4932 13.4048 19.9326 13.1245 19.2969C12.8511 18.6611 12.7144 17.981 12.7144 17.2563C12.7144 16.5317 12.8511 15.8516 13.1245 15.2158C13.4048 14.5801 13.7876 14.0195 14.2729 13.5342C14.7583 13.042 15.3188 12.6592 15.9546 12.3857C16.5903 12.1123 17.2705 11.9756 17.9951 11.9756C18.7197 11.9756 19.3999 12.1123 20.0356 12.3857C20.6714 12.6592 21.2319 13.0386 21.7173 13.5239C22.2026 14.0093 22.582 14.5732 22.8555 15.2158C23.1357 15.8516 23.2759 16.5317 23.2759 17.2563C23.2759 17.9741 23.1357 18.6509 22.8555 19.2866C22.582 19.9292 22.1992 20.4932 21.707 20.9785C21.2217 21.4639 20.6577 21.8433 20.0151 22.1167C19.3794 22.397 18.7061 22.5371 17.9951 22.5371ZM17.9849 20.5991C18.1968 20.5991 18.3643 20.5342 18.4873 20.4043C18.6172 20.2744 18.6821 20.1069 18.6821 19.9019V17.9536H20.6304C20.8354 17.9536 21.0029 17.8887 21.1328 17.7588C21.2627 17.6357 21.3276 17.4683 21.3276 17.2563C21.3276 17.0444 21.2627 16.877 21.1328 16.7539C21.0029 16.624 20.8354 16.5591 20.6304 16.5591H18.6821V14.6108C18.6821 14.4058 18.6172 14.2383 18.4873 14.1084C18.3643 13.9785 18.1968 13.9136 17.9849 13.9136C17.7729 13.9136 17.6021 13.9785 17.4722 14.1084C17.3491 14.2383 17.2876 14.4058 17.2876 14.6108V16.5591H15.3394C15.1343 16.5591 14.9668 16.624 14.8369 16.7539C14.707 16.877 14.6421 17.0444 14.6421 17.2563C14.6421 17.4683 14.707 17.6357 14.8369 17.7588C14.9668 17.8887 15.1343 17.9536 15.3394 17.9536H17.2876V19.9019C17.2876 20.1069 17.3491 20.2744 17.4722 20.4043C17.6021 20.5342 17.7729 20.5991 17.9849 20.5991Z" fill="#227AA1"/>
</svg>
