<svg width="21" height="21" viewBox="0 0 21 21" fill="none" xmlns="http://www.w3.org/2000/svg">
<path d="M1.15869 20.1226C0.851074 20.1226 0.611816 20.0303 0.440918 19.8457C0.27002 19.668 0.18457 19.415 0.18457 19.0869V5.30566C0.18457 4.99121 0.242676 4.73145 0.358887 4.52637C0.481934 4.32129 0.67334 4.14697 0.933105 4.00342L6.14209 0.958008C6.47021 0.759766 6.81885 0.660645 7.18799 0.660645C7.55029 0.660645 7.89551 0.759766 8.22363 0.958008L13.6992 4.31104L19.1133 1.31689C19.25 1.2417 19.3765 1.18701 19.4927 1.15283C19.6157 1.11182 19.7354 1.09131 19.8516 1.09131C20.1523 1.09131 20.3882 1.18018 20.5591 1.35791C20.73 1.53564 20.8154 1.78857 20.8154 2.1167V15.9185C20.8154 16.2192 20.7539 16.4722 20.6309 16.6772C20.5146 16.8823 20.3267 17.0566 20.0669 17.2002L14.7656 20.2559C14.4512 20.4404 14.1265 20.5327 13.7915 20.5327C13.4429 20.5327 13.0942 20.4336 12.7456 20.2354L7.15723 16.9951L1.88672 19.8765C1.75 19.9585 1.62012 20.02 1.49707 20.061C1.38086 20.1021 1.26807 20.1226 1.15869 20.1226ZM6.64453 15.7749V2.16797C6.58301 2.19531 6.5249 2.22607 6.47021 2.26025C6.41553 2.2876 6.354 2.31494 6.28564 2.34229L1.77393 5.02881C1.65088 5.09717 1.56543 5.1792 1.51758 5.2749C1.46973 5.36377 1.4458 5.46973 1.4458 5.59277V18.3384C1.4458 18.4614 1.50049 18.5229 1.60986 18.5229C1.65088 18.5229 1.70215 18.5093 1.76367 18.4819L6.64453 15.7749ZM7.90576 15.8774L12.6943 18.687C12.7627 18.7212 12.8311 18.752 12.8994 18.7793C12.9678 18.8135 13.0327 18.8477 13.0942 18.8818V5.44922L8.22363 2.47559C8.17578 2.44141 8.12109 2.41064 8.05957 2.3833C8.00488 2.35596 7.95361 2.33203 7.90576 2.31152V15.8774ZM14.3657 19.0049C14.4272 18.9775 14.4922 18.9434 14.5605 18.9023C14.6357 18.8682 14.7075 18.834 14.7759 18.7998L19.2261 16.1851C19.3491 16.1167 19.4346 16.0347 19.4824 15.939C19.5303 15.8433 19.5542 15.7339 19.5542 15.6108V2.86523C19.5542 2.80371 19.5371 2.75928 19.5029 2.73193C19.4756 2.69775 19.438 2.68066 19.3901 2.68066C19.356 2.68066 19.3081 2.69775 19.2466 2.73193L14.3657 5.3877V19.0049Z" fill="black"/>
</svg>
