<svg width="16" height="15" viewBox="0 0 16 15" fill="none" xmlns="http://www.w3.org/2000/svg">
<path d="M2.55469 14.6641C1.71094 14.6641 1.07292 14.4479 0.640625 14.0156C0.208333 13.5885 -0.0078125 12.9583 -0.0078125 12.125V2.61719C-0.0078125 1.77865 0.208333 1.14583 0.640625 0.71875C1.07292 0.291667 1.71094 0.078125 2.55469 0.078125H13.3047C14.1536 0.078125 14.7917 0.291667 15.2188 0.71875C15.651 1.14583 15.8672 1.77865 15.8672 2.61719V12.125C15.8672 12.9583 15.651 13.5885 15.2188 14.0156C14.7917 14.4479 14.1536 14.6641 13.3047 14.6641H2.55469ZM2.53906 13.125H13.3125C13.6406 13.125 13.8906 13.0417 14.0625 12.875C14.2396 12.7031 14.3281 12.4479 14.3281 12.1094V4.89062C14.3281 4.55208 14.2396 4.29688 14.0625 4.125C13.8906 3.95312 13.6406 3.86719 13.3125 3.86719H2.53906C2.21094 3.86719 1.96094 3.95312 1.78906 4.125C1.61719 4.29688 1.53125 4.55208 1.53125 4.89062V12.1094C1.53125 12.4479 1.61719 12.7031 1.78906 12.875C1.96094 13.0417 2.21094 13.125 2.53906 13.125ZM3.88281 6.6875C3.73698 6.6875 3.61458 6.64062 3.51562 6.54688C3.42188 6.44792 3.375 6.32552 3.375 6.17969C3.375 6.04427 3.42188 5.92969 3.51562 5.83594C3.61458 5.74219 3.73698 5.69531 3.88281 5.69531H11.9922C12.138 5.69531 12.2578 5.74219 12.3516 5.83594C12.4453 5.92969 12.4922 6.04427 12.4922 6.17969C12.4922 6.32552 12.4453 6.44792 12.3516 6.54688C12.2578 6.64062 12.138 6.6875 11.9922 6.6875H3.88281ZM3.88281 8.99219C3.73698 8.99219 3.61458 8.94531 3.51562 8.85156C3.42188 8.75781 3.375 8.64323 3.375 8.50781C3.375 8.36719 3.42188 8.25 3.51562 8.15625C3.61458 8.05729 3.73698 8.00781 3.88281 8.00781H11.9922C12.138 8.00781 12.2578 8.05729 12.3516 8.15625C12.4453 8.25 12.4922 8.36719 12.4922 8.50781C12.4922 8.64323 12.4453 8.75781 12.3516 8.85156C12.2578 8.94531 12.138 8.99219 11.9922 8.99219H3.88281ZM3.88281 11.3047C3.73698 11.3047 3.61458 11.2578 3.51562 11.1641C3.42188 11.0703 3.375 10.9557 3.375 10.8203C3.375 10.6797 3.42188 10.5625 3.51562 10.4688C3.61458 10.3698 3.73698 10.3203 3.88281 10.3203H9C9.14583 10.3203 9.26562 10.3698 9.35938 10.4688C9.45312 10.5625 9.5 10.6797 9.5 10.8203C9.5 10.9557 9.45312 11.0703 9.35938 11.1641C9.26562 11.2578 9.14583 11.3047 9 11.3047H3.88281Z" fill="black"/>
</svg>
