<svg width="35" height="32" viewBox="0 0 35 32" fill="none" xmlns="http://www.w3.org/2000/svg">
<path opacity="0.1" d="M34.016 16C34.016 7.16344 26.5851 0 17.4186 0C8.25217 0 0.821289 7.16344 0.821289 16C0.821289 24.8366 8.25217 32 17.4186 32C26.5851 32 34.016 24.8366 34.016 16Z" fill="#FF7A00"/>
<path d="M14.1768 9.31738C14.1768 8.70801 14.3232 8.1543 14.6162 7.65625C14.915 7.15234 15.3135 6.75098 15.8115 6.45215C16.3096 6.15332 16.8633 6.00391 17.4727 6.00391C18.0879 6.00391 18.6445 6.15332 19.1426 6.45215C19.6406 6.75098 20.0361 7.15234 20.3291 7.65625C20.6279 8.1543 20.7773 8.70801 20.7773 9.31738C20.7773 9.83301 20.6689 10.3105 20.4521 10.75C20.2354 11.1895 19.9395 11.5645 19.5645 11.875C19.1895 12.1855 18.7646 12.3994 18.29 12.5166V20.6729C18.29 21.3232 18.2637 21.8975 18.2109 22.3955C18.1582 22.8936 18.0908 23.3125 18.0088 23.6523C17.9326 23.9922 17.8447 24.2471 17.7451 24.417C17.6514 24.5928 17.5605 24.6807 17.4727 24.6807C17.3848 24.6807 17.2939 24.5928 17.2002 24.417C17.1064 24.2412 17.0186 23.9834 16.9365 23.6436C16.8545 23.3037 16.7871 22.8848 16.7344 22.3867C16.6816 21.8945 16.6553 21.3232 16.6553 20.6729V12.5166C16.1807 12.3994 15.7559 12.1855 15.3809 11.875C15.0059 11.5645 14.71 11.1895 14.4932 10.75C14.2822 10.3105 14.1768 9.83301 14.1768 9.31738ZM16.5234 9.49316C16.834 9.49316 17.1006 9.38184 17.3232 9.15918C17.5459 8.93066 17.6572 8.66406 17.6572 8.35938C17.6572 8.05469 17.5459 7.79102 17.3232 7.56836C17.1006 7.3457 16.834 7.23438 16.5234 7.23438C16.2246 7.23438 15.9609 7.3457 15.7324 7.56836C15.5098 7.79102 15.3984 8.05469 15.3984 8.35938C15.3984 8.66406 15.5098 8.93066 15.7324 9.15918C15.9609 9.38184 16.2246 9.49316 16.5234 9.49316Z" fill="#FF7A00"/>
</svg>
