<svg width="20" height="19" viewBox="0 0 20 19" fill="none" xmlns="http://www.w3.org/2000/svg">
<path d="M9.85449 18.9355C8.58301 18.9355 7.3877 18.6924 6.26855 18.2061C5.14941 17.7256 4.16211 17.0576 3.30664 16.2021C2.45117 15.3525 1.78027 14.3682 1.29395 13.249C0.813477 12.1299 0.573242 10.9316 0.573242 9.6543C0.573242 8.38281 0.813477 7.1875 1.29395 6.06836C1.78027 4.94922 2.44824 3.96191 3.29785 3.10645C4.15332 2.25098 5.14062 1.58301 6.25977 1.10254C7.38477 0.616211 8.58301 0.373047 9.85449 0.373047C11.126 0.373047 12.3213 0.616211 13.4404 1.10254C14.5654 1.58301 15.5527 2.25098 16.4023 3.10645C17.2578 3.96191 17.9287 4.94922 18.415 6.06836C18.9014 7.1875 19.1445 8.38281 19.1445 9.6543C19.1445 10.9316 18.9014 12.1299 18.415 13.249C17.9287 14.3682 17.2578 15.3525 16.4023 16.2021C15.5527 17.0576 14.5684 17.7256 13.4492 18.2061C12.3301 18.6924 11.1318 18.9355 9.85449 18.9355ZM9.85449 16.624C10.8213 16.624 11.7266 16.4424 12.5703 16.0791C13.4141 15.7217 14.1553 15.2266 14.7939 14.5938C15.4326 13.9551 15.9307 13.2139 16.2881 12.3701C16.6514 11.5264 16.833 10.6211 16.833 9.6543C16.833 8.6875 16.6514 7.78516 16.2881 6.94727C15.9248 6.10352 15.4238 5.3623 14.7852 4.72363C14.1523 4.08496 13.4141 3.58691 12.5703 3.22949C11.7266 2.86621 10.8213 2.68457 9.85449 2.68457C8.8877 2.68457 7.98242 2.86621 7.13867 3.22949C6.30078 3.58691 5.5625 4.08496 4.92383 4.72363C4.28516 5.3623 3.78711 6.10352 3.42969 6.94727C3.07227 7.78516 2.89355 8.6875 2.89355 9.6543C2.89355 10.6211 3.07227 11.5264 3.42969 12.3701C3.78711 13.2139 4.28516 13.9551 4.92383 14.5938C5.5625 15.2266 6.30371 15.7217 7.14746 16.0791C7.99121 16.4424 8.89355 16.624 9.85449 16.624ZM5.99609 10.0322C5.99609 9.37012 6.14844 8.76367 6.45312 8.21289C6.76367 7.65625 7.17383 7.20508 7.68359 6.85938C8.19336 6.50781 8.75293 6.30566 9.3623 6.25293C9.3916 6.25293 9.42383 6.25293 9.45898 6.25293C9.5 6.25293 9.53223 6.25293 9.55566 6.25293L9.2041 5.88379C9.16309 5.8252 9.12207 5.76074 9.08105 5.69043C9.0459 5.61426 9.02832 5.52344 9.02832 5.41797C9.02832 5.24805 9.08984 5.0957 9.21289 4.96094C9.33594 4.82617 9.50879 4.75879 9.73145 4.75879C9.83691 4.75879 9.93359 4.78223 10.0215 4.8291C10.1094 4.87598 10.1885 4.93164 10.2588 4.99609L11.8145 6.58691C11.9434 6.71582 12.0078 6.88281 12.0078 7.08789C12.0137 7.28711 11.9492 7.45703 11.8145 7.59766L10.2412 9.1709C10.1064 9.31152 9.93945 9.38184 9.74023 9.38184C9.54102 9.38184 9.37402 9.32031 9.23926 9.19727C9.10449 9.07422 9.03711 8.9043 9.03711 8.6875C9.03711 8.5293 9.07812 8.39746 9.16016 8.29199L9.62598 7.81738C9.5498 7.8291 9.46484 7.84082 9.37109 7.85254C9.02539 7.88184 8.71191 7.99902 8.43066 8.2041C8.14941 8.40918 7.92676 8.67578 7.7627 9.00391C7.60449 9.32617 7.52539 9.6748 7.52539 10.0498C7.52539 10.4834 7.62793 10.8789 7.83301 11.2363C8.03809 11.5879 8.31641 11.8691 8.66797 12.0801C9.02539 12.291 9.4209 12.3965 9.85449 12.3965C10.2881 12.3965 10.6807 12.291 11.0322 12.0801C11.3838 11.8691 11.665 11.5879 11.876 11.2363C12.0869 10.8789 12.1924 10.4834 12.1924 10.0498C12.1924 9.84473 12.2656 9.66895 12.4121 9.52246C12.5645 9.37598 12.7461 9.30273 12.957 9.30273C13.1621 9.30273 13.3379 9.37598 13.4844 9.52246C13.6367 9.66895 13.7129 9.84473 13.7129 10.0498C13.7129 10.7646 13.54 11.415 13.1943 12.001C12.8486 12.5869 12.3828 13.0557 11.7969 13.4072C11.2109 13.7529 10.5635 13.9258 9.85449 13.9258C9.14551 13.9258 8.49805 13.7529 7.91211 13.4072C7.33203 13.0557 6.86621 12.5869 6.51465 12.001C6.16895 11.4092 5.99609 10.7529 5.99609 10.0322Z" fill="#5DCAFA"/>
</svg>
