<svg width="27" height="25" viewBox="0 0 27 25" fill="none" xmlns="http://www.w3.org/2000/svg">
<path d="M20.6753 5.31641C19.4756 5.31641 18.5015 4.33203 18.5015 3.13232C18.5015 1.93262 19.4756 0.958496 20.6753 0.958496C21.875 0.958496 22.8491 1.93262 22.8491 3.13232C22.8491 4.33203 21.875 5.31641 20.6753 5.31641ZM8.15527 5.75732C6.95557 5.75732 5.98145 4.77295 5.98145 3.57324C5.98145 2.37354 6.95557 1.39941 8.15527 1.39941C9.36523 1.39941 10.3394 2.37354 10.3394 3.57324C10.3394 4.77295 9.36523 5.75732 8.15527 5.75732ZM2.15674 8.46436C1.42871 8.41309 0.936523 7.68506 1.17236 6.99805L2.63867 2.60938C2.8335 2.03516 3.46924 1.72754 4.04346 1.91211C4.61768 2.09668 4.9458 2.73242 4.74072 3.32715L3.72559 6.3623L8.09375 6.70068C8.62695 6.7417 9.10889 6.875 9.59082 7.12109L12.7388 8.68994H16.0918L18.1016 6.95703C19.1064 6.0957 20.4087 5.87012 21.6187 6.27002L24.5 7.23389L24.1821 4.05518C24.1206 3.43994 24.582 2.88623 25.1768 2.82471C25.7612 2.76318 26.3252 3.19385 26.3867 3.82959L26.8789 8.75146C26.9609 9.62305 26.2944 10.1768 25.4229 9.87939L24.2129 9.46924C23.9771 9.38721 23.7822 9.54102 23.8335 9.78711L24.2026 11.8379C24.3872 12.8633 24.1616 13.981 23.5464 14.8423L21.1572 18.2363L22.8901 22.5635C23.1157 23.1274 22.8389 23.7837 22.2749 24.0093C21.752 24.2246 21.0752 24.0093 20.8291 23.3838L18.8706 18.5029C18.7373 18.1748 18.8193 17.8159 18.9834 17.498L20.3677 14.7192L17.5068 15.1499L17.1172 19.0464C17.0659 19.6309 16.584 20.0513 16.0098 20.0513C15.4766 20.0513 14.8408 19.5693 14.9126 18.8413L15.374 14.0835C15.4253 13.6221 15.7534 13.2427 16.2046 13.1196L20.3984 11.9609L19.4038 9.22314C19.3423 9.03857 19.1475 8.9668 18.9834 9.11035L17.2095 10.6382C17.0249 10.8022 16.748 10.9048 16.502 10.9048H12.6055C12.3594 10.9048 12.0518 10.833 11.8774 10.7407L9.43701 9.52051C9.2627 9.42822 9.07812 9.52051 9.05762 9.72559L8.73975 12.8735L15.7944 21.8047C16.1738 22.2866 16.0815 22.9634 15.5996 23.3633C15.1484 23.7427 14.4307 23.6504 14.0513 23.1787L10.1445 18.2363C10.1445 18.3184 10.1343 18.3901 10.1035 18.4722L8.66797 23.2915C8.47314 23.9375 7.84766 24.2041 7.28369 24.0503C6.69922 23.8862 6.36084 23.2505 6.53516 22.6558L7.8374 18.3389L5.29443 15.0679C4.80225 14.4424 4.5459 13.6528 4.5459 12.853V8.89502C4.5459 8.74121 4.45361 8.64893 4.31006 8.63867L2.15674 8.46436Z" fill="#474747"/>
</svg>
