<svg width="36" height="39" viewBox="0 0 36 39" fill="none" xmlns="http://www.w3.org/2000/svg">
<path d="M0.84375 17.6367V13.7168C0.84375 11.5547 2.12695 10.5879 4.20117 10.5879H7.7168C6.69727 9.60352 6.08203 8.26758 6.08203 6.70312C6.08203 3.22266 8.87695 0.708984 12.3574 0.708984C14.9414 0.708984 17.1387 2.16797 18 4.73438C18.8613 2.16797 21.041 0.708984 23.6426 0.708984C27.123 0.708984 29.918 3.22266 29.918 6.70312C29.918 8.26758 29.3027 9.60352 28.2832 10.5879H31.7812C33.9609 10.5879 35.1562 11.5547 35.1562 13.7168V17.6367C35.1562 19.5879 34.0488 20.4668 32.0801 20.4668H19.6523V10.5879H16.3477V8.10938C16.3477 5.63086 14.6953 4.01367 12.6562 4.01367C10.7578 4.01367 9.43945 5.15625 9.43945 7.03711C9.43945 8.95312 11.0039 10.5879 13.6934 10.5879H16.3477V20.4668H3.91992C1.96875 20.4668 0.84375 19.5879 0.84375 17.6367ZM23.3438 4.01367C21.3047 4.01367 19.6523 5.63086 19.6523 8.10938V10.5879H22.3066C24.9961 10.5879 26.5605 8.95312 26.5605 7.03711C26.5605 5.15625 25.2422 4.01367 23.3438 4.01367ZM3.26953 33.4395V22.5938H16.3477V38.0449H8.05078C5.04492 38.0449 3.26953 36.4277 3.26953 33.4395ZM19.6523 38.0449V22.5938H32.7305V33.4395C32.7305 36.4277 30.9551 38.0449 27.9492 38.0449H19.6523Z" fill="white"/>
</svg>
