<svg width="18" height="18" viewBox="0 0 18 18" fill="none" xmlns="http://www.w3.org/2000/svg">
<path d="M7.98044 0.282184L6.23438 1.80257H8.73845V6.02955e-06C8.46821 -0.000867586 8.19768 0.0931917 7.98044 0.282184Z" fill="#FDF0BC"/>
<path d="M9.48688 0.280431C9.27197 0.0943505 9.00551 0.000873615 8.73877 0V1.80256H11.2428L9.48688 0.280431Z" fill="url(#paint0_linear_109_4065)"/>
<path d="M2.64733 2.77479L2.28711 5.06192L4.20528 3.45243L3.04657 2.07153C2.83894 2.24451 2.69218 2.49058 2.64733 2.77479Z" fill="#FDF0BC"/>
<path d="M3.80022 1.80558C3.51601 1.80092 3.25159 1.9008 3.04688 2.07174L4.20558 3.45263L6.12375 1.84314L3.80022 1.80558Z" fill="url(#paint1_linear_109_4065)"/>
<path d="M0.164502 8.11271L1.35844 10.0964L1.79321 7.63048L0.0183169 7.31714C-0.029732 7.5833 0.0159873 7.86606 0.164502 8.11271Z" fill="#FDF0BC"/>
<path d="M0.42425 6.62907C0.203808 6.80845 0.0654858 7.05481 0.0183105 7.31719L1.7935 7.63023L2.22827 5.16431L0.42425 6.62907Z" fill="url(#paint2_linear_109_4065)"/>
<path d="M1.69337 13.7976L3.88323 14.5495L2.63134 12.3809L1.07019 13.2821C1.20444 13.5168 1.42109 13.7041 1.69337 13.7976Z" fill="url(#paint3_linear_109_4065)"/>
<path d="M0.938774 12.4942C0.884901 12.7732 0.937318 13.051 1.06982 13.2825L2.63097 12.3813L1.37908 10.2126L0.938774 12.4942Z" fill="url(#paint4_linear_109_4065)"/>
<path d="M6.51864 17.1698L8.67938 16.3384L6.32644 15.4819L5.70996 17.1759C5.9636 17.2691 6.25015 17.2731 6.51864 17.1698Z" fill="url(#paint5_linear_109_4065)"/>
<path d="M5.1028 16.6561C5.24084 16.9045 5.45953 17.0836 5.70997 17.1756L6.32645 15.4817L3.97351 14.6252L5.1028 16.6561Z" fill="url(#paint6_linear_109_4065)"/>
<path d="M12.3828 16.6514L13.5037 14.6255L11.1508 15.4819L11.7672 17.1759C12.0212 17.0841 12.2434 16.9033 12.3828 16.6514Z" fill="url(#paint7_linear_109_4065)"/>
<path d="M10.968 17.1681C11.2335 17.2697 11.516 17.2662 11.767 17.1756L11.1505 15.4817L8.79761 16.3381L10.968 17.1681Z" fill="url(#paint8_linear_109_4065)"/>
<path d="M16.5416 12.4849L16.0981 10.2126L14.8462 12.3813L16.4073 13.2825C16.543 13.0487 16.5969 12.7674 16.5416 12.4849Z" fill="url(#paint9_linear_109_4065)"/>
<path d="M15.79 13.79C16.0585 13.6971 16.2728 13.5128 16.407 13.2821L14.8459 12.3809L13.594 14.5495L15.79 13.79Z" fill="url(#paint10_linear_109_4065)"/>
<path d="M17.0492 6.61975L15.2487 5.16431L15.6834 7.63023L17.4586 7.31719C17.4129 7.05102 17.2731 6.80088 17.0492 6.61975Z" fill="url(#paint11_linear_109_4065)"/>
<path d="M17.3124 8.10281C17.4585 7.85907 17.5043 7.5801 17.4585 7.31714L15.6833 7.63018L16.1181 10.0961L17.3124 8.10281Z" fill="url(#paint12_linear_109_4065)"/>
<path d="M13.6683 1.80049L11.3535 1.84271L13.2717 3.4522L14.4304 2.07131C14.2239 1.89717 13.9563 1.79524 13.6683 1.80049Z" fill="url(#paint13_linear_109_4065)"/>
<path d="M14.8231 2.76771C14.7783 2.48699 14.6342 2.24412 14.4303 2.07202L13.2716 3.45292L15.1898 5.06241L14.8231 2.76771Z" fill="url(#paint14_linear_109_4065)"/>
<path d="M8.73848 14.9701C12.1159 14.9701 14.8538 12.2322 14.8538 8.85481C14.8538 5.47742 12.1159 2.7395 8.73848 2.7395C5.36108 2.7395 2.62317 5.47742 2.62317 8.85481C2.62317 12.2322 5.36108 14.9701 8.73848 14.9701Z" fill="url(#paint15_radial_109_4065)"/>
<path d="M8.73839 2.19336C5.0593 2.19336 2.07678 5.17559 2.07678 8.85468C2.07678 12.5338 5.0593 15.5163 8.73839 15.5163C12.4175 15.5163 15.4 12.5338 15.4 8.85468C15.4 5.17559 12.4175 2.19336 8.73839 2.19336ZM8.73839 14.9694C5.36128 14.9694 2.62367 12.2318 2.62367 8.85468C2.62367 5.47757 5.36128 2.73995 8.73839 2.73995C12.1155 2.73995 14.8531 5.47757 14.8531 8.85468C14.8531 12.2318 12.1155 14.9694 8.73839 14.9694Z" fill="url(#paint16_linear_109_4065)"/>
<path d="M8.7384 1.34326C4.58989 1.34326 1.22705 4.7061 1.22705 8.85461C1.22705 13.0031 4.58989 16.366 8.7384 16.366C12.8869 16.366 16.2497 13.0031 16.2497 8.85461C16.2497 4.7061 12.8869 1.34326 8.7384 1.34326ZM8.7384 15.513C5.06106 15.513 2.07999 12.5319 2.07999 8.85461C2.07999 5.17727 5.06106 2.19649 8.7384 2.19649C12.4157 2.19649 15.3968 5.17756 15.3968 8.8549C15.3968 12.5322 12.4157 15.513 8.7384 15.513Z" fill="url(#paint17_linear_109_4065)"/>
<path d="M7.05243 11.9193C6.95051 11.9193 6.85587 11.8867 6.7723 11.8284C6.76152 11.8211 6.75424 11.8139 6.74696 11.8066C6.73968 11.8031 6.7359 11.7958 6.7324 11.792C6.71784 11.781 6.71056 11.7702 6.69979 11.7594C6.69251 11.7521 6.68872 11.7448 6.68173 11.7376L6.67824 11.7341C6.67096 11.7268 6.66717 11.7195 6.66368 11.7122L6.6564 11.7012C6.64184 11.6793 6.63106 11.6575 6.62 11.6356C6.6165 11.6249 6.61272 11.6138 6.60893 11.603C6.60544 11.592 6.60165 11.5777 6.59816 11.5666C6.59437 11.5521 6.59087 11.534 6.58709 11.5157C6.58709 11.5084 6.58359 11.4976 6.58359 11.4903C6.58359 11.4758 6.5801 11.4612 6.5801 11.4467C6.5801 11.4213 6.58359 11.3957 6.58738 11.3666L6.86752 9.73699L5.68523 8.58381C5.66339 8.56197 5.64155 8.53664 5.62349 8.51101C5.60165 8.4784 5.58709 8.45277 5.57632 8.42365C5.57282 8.41288 5.56554 8.39832 5.56176 8.37997C5.55069 8.33629 5.5437 8.29261 5.5437 8.24543C5.5437 8.23087 5.5437 8.2201 5.5437 8.20554C5.5437 8.1837 5.5472 8.16186 5.55448 8.14002C5.55448 8.13652 5.55797 8.12924 5.55797 8.12546C5.56176 8.11439 5.56176 8.10362 5.56525 8.09284C5.56525 8.08935 5.56874 8.08178 5.57253 8.071C5.57603 8.05994 5.57981 8.04916 5.58709 8.03839C5.59787 8.01655 5.60893 7.99471 5.62699 7.96937C5.63427 7.95481 5.64504 7.94404 5.65611 7.93297C5.65611 7.93297 5.65611 7.92948 5.6596 7.92948L5.71784 7.83483H5.7688C5.77608 7.83105 5.77958 7.82755 5.78686 7.82377C5.79414 7.82027 5.8087 7.81299 5.81947 7.80571C5.83403 7.79843 5.85209 7.79115 5.87393 7.78387C5.88121 7.78038 5.89198 7.77659 5.90305 7.77659C5.91761 7.7731 5.93217 7.76931 5.95022 7.76553L7.58709 7.52907L8.30724 6.05586C8.38732 5.89221 8.55098 5.79028 8.73269 5.79028C8.86373 5.79028 8.99099 5.84474 9.08184 5.93938C9.0964 5.95744 9.11096 5.972 9.12174 5.99034C9.1363 6.01218 9.15086 6.03402 9.16163 6.05586L9.89285 7.53256L11.5259 7.76902C11.7079 7.79436 11.857 7.9219 11.9115 8.09634C11.9153 8.1074 11.9188 8.11439 11.9188 8.12546C11.9188 8.12895 11.9188 8.12895 11.9223 8.13274C11.9258 8.1438 11.9295 8.15458 11.9295 8.16914C11.9295 8.17263 11.9295 8.17263 11.9295 8.17642C11.933 8.19098 11.933 8.20175 11.933 8.21631C11.9368 8.28533 11.9258 8.35813 11.8966 8.42365C11.8856 8.45277 11.8713 8.47811 11.853 8.50373L11.8492 8.50723C11.8311 8.53256 11.8093 8.55819 11.7874 8.58003L10.6051 9.7332L10.8853 11.359C10.9144 11.5372 10.8454 11.7154 10.696 11.8246C10.6596 11.85 10.6159 11.8756 10.5722 11.8902C10.5684 11.8902 10.565 11.8939 10.5577 11.8939C10.5105 11.9085 10.463 11.9158 10.4159 11.9158C10.3396 11.9158 10.263 11.8977 10.194 11.8613L8.73181 11.0937L7.26967 11.8613C7.20503 11.9012 7.12873 11.9193 7.05243 11.9193Z" fill="#DF771E"/>
<path d="M8.73259 6.02295V9.0311L7.72852 7.74717L8.51419 6.15778C8.56165 6.07042 8.64902 6.02295 8.73259 6.02295Z" fill="#FFFAF6"/>
<path d="M11.6898 8.17301L8.73608 9.03148L9.73987 7.74756L11.4932 8.00207C11.5916 8.02013 11.6607 8.08914 11.6898 8.17301Z" fill="#FEE0AC"/>
<path d="M10.5588 11.6393L8.73291 9.03125L10.3552 9.65326L10.6534 11.3993C10.675 11.5013 10.6313 11.5883 10.5588 11.6393Z" fill="#ECB76B"/>
<path d="M8.73264 9.03125V10.8318L7.16479 11.6573C7.07394 11.7045 6.9793 11.69 6.90649 11.6393L8.73264 9.03125Z" fill="#F1A341"/>
<path d="M9.73674 7.74717L8.73267 9.0311V6.02295C8.79819 6.02295 8.86371 6.04828 8.91088 6.09924C8.91816 6.10652 8.92544 6.1173 8.93272 6.12837C8.94 6.13943 8.94728 6.15021 8.95078 6.16098L9.73674 7.74717Z" fill="#FFE9BA"/>
<path d="M11.6826 8.33668C11.6753 8.35124 11.668 8.3658 11.6607 8.38036C11.6497 8.39492 11.6389 8.40569 11.6281 8.42025L10.3588 9.657L8.73645 9.03499L11.6901 8.17651C11.6901 8.18001 11.6936 8.18379 11.6936 8.18758C11.6936 8.19137 11.6974 8.19486 11.6974 8.20214C11.6974 8.20593 11.6974 8.20593 11.6974 8.20593C11.6974 8.20942 11.6974 8.21321 11.6974 8.2167C11.6974 8.22398 11.6974 8.22777 11.6974 8.23475C11.7009 8.26737 11.6971 8.30377 11.6826 8.33668Z" fill="#E49632"/>
<path d="M10.5588 11.6393C10.5408 11.6538 10.5189 11.6646 10.4933 11.6719C10.4898 11.6719 10.4898 11.6719 10.486 11.6754C10.4278 11.6934 10.3622 11.69 10.3005 11.6573L8.73267 10.8318V9.03125L10.5588 11.6393Z" fill="#E29136"/>
<path d="M8.73258 9.03125L6.90673 11.6393C6.90323 11.6355 6.89945 11.632 6.89595 11.6282C6.89246 11.6247 6.88867 11.6209 6.88489 11.6172C6.88139 11.6137 6.87761 11.6099 6.87033 11.6026C6.86654 11.5991 6.86305 11.5953 6.85926 11.5915C6.85548 11.5877 6.85577 11.588 6.85577 11.5842C6.85227 11.5808 6.84849 11.577 6.84849 11.5732C6.84121 11.5624 6.83393 11.5513 6.83043 11.5406C6.82694 11.5371 6.82694 11.5295 6.82315 11.5225C6.81966 11.5152 6.81966 11.5114 6.81587 11.5045C6.81238 11.4972 6.81238 11.4864 6.81238 11.4791C6.81238 11.4756 6.81238 11.4681 6.81238 11.4646C6.81238 11.4573 6.81238 11.45 6.81238 11.4427C6.81238 11.4282 6.81238 11.4136 6.81587 11.399L7.11407 9.65297L8.73258 9.03125Z" fill="#FED891"/>
<path d="M8.73262 9.03116L5.77893 8.17269C5.77893 8.16919 5.78243 8.16541 5.78243 8.16162C5.78592 8.15434 5.78592 8.14706 5.78971 8.14357C5.79699 8.12901 5.80427 8.11823 5.81155 8.10717C5.81504 8.09989 5.81883 8.0961 5.82611 8.08911C5.82989 8.08562 5.83339 8.07805 5.84067 8.07455C5.84416 8.07106 5.85173 8.06378 5.85523 8.05999C5.85872 8.05621 5.866 8.05271 5.86979 8.04893C5.87707 8.04543 5.88435 8.03786 5.89163 8.03437C5.89512 8.03087 5.9024 8.02709 5.90968 8.02709C5.92075 8.02359 5.92774 8.01981 5.9388 8.01602C5.9423 8.01602 5.94608 8.01253 5.95336 8.01253C5.96064 8.00903 5.97142 8.00903 5.98248 8.00525L7.73583 7.75073L8.73262 9.03116Z" fill="#FFF3D9"/>
<path d="M8.73265 9.03116L7.11414 9.65666L5.84477 8.41992C5.83021 8.40885 5.82293 8.39458 5.81216 8.38002C5.80488 8.36546 5.7941 8.3509 5.79032 8.33634C5.78682 8.32906 5.78304 8.32178 5.78304 8.3145C5.77576 8.29266 5.77197 8.26733 5.77197 8.24549C5.77197 8.2382 5.77197 8.23092 5.77197 8.22364C5.77197 8.21287 5.77197 8.20559 5.77576 8.19452C5.77576 8.19103 5.77925 8.18724 5.77925 8.17996C5.77925 8.17647 5.78275 8.17268 5.78275 8.16919L8.73265 9.03116Z" fill="#ECB76B"/>
<defs>
<linearGradient id="paint0_linear_109_4065" x1="8.8612" y1="0.90128" x2="11.1607" y2="0.90128" gradientUnits="userSpaceOnUse">
<stop stop-color="#FEE998"/>
<stop offset="1" stop-color="#FCC15B"/>
</linearGradient>
<linearGradient id="paint1_linear_109_4065" x1="3.74703" y1="2.66019" x2="6.04192" y2="0.734403" gradientUnits="userSpaceOnUse">
<stop stop-color="#FEE998"/>
<stop offset="1" stop-color="#FCC15B"/>
</linearGradient>
<linearGradient id="paint2_linear_109_4065" x1="2.26934" y1="5.15915" x2="0.974331" y2="7.28666" gradientUnits="userSpaceOnUse">
<stop stop-color="#FCC15B"/>
<stop offset="1" stop-color="#FEE998"/>
</linearGradient>
<linearGradient id="paint3_linear_109_4065" x1="1.6606" y1="12.781" x2="3.91145" y2="14.261" gradientUnits="userSpaceOnUse">
<stop stop-color="#FFC05F"/>
<stop offset="1" stop-color="#ED892B"/>
</linearGradient>
<linearGradient id="paint4_linear_109_4065" x1="1.40475" y1="10.2598" x2="1.80558" y2="12.7882" gradientUnits="userSpaceOnUse">
<stop stop-color="#FCC15B"/>
<stop offset="1" stop-color="#FEE998"/>
</linearGradient>
<linearGradient id="paint5_linear_109_4065" x1="6.13089" y1="16.3591" x2="8.3509" y2="16.8524" gradientUnits="userSpaceOnUse">
<stop stop-color="#FEAC3E"/>
<stop offset="1" stop-color="#F08223"/>
</linearGradient>
<linearGradient id="paint6_linear_109_4065" x1="3.86248" y1="14.6059" x2="5.89749" y2="16.2709" gradientUnits="userSpaceOnUse">
<stop stop-color="#FFA135"/>
<stop offset="1" stop-color="#FEB431"/>
</linearGradient>
<linearGradient id="paint7_linear_109_4065" x1="13.5125" y1="14.611" x2="11.4827" y2="16.3582" gradientUnits="userSpaceOnUse">
<stop stop-color="#FFAA3D"/>
<stop offset="1" stop-color="#ED8B1C"/>
</linearGradient>
<linearGradient id="paint8_linear_109_4065" x1="8.80652" y1="16.5003" x2="11.3965" y2="16.3564" gradientUnits="userSpaceOnUse">
<stop stop-color="#FF962D"/>
<stop offset="1" stop-color="#E56005"/>
</linearGradient>
<linearGradient id="paint9_linear_109_4065" x1="16.1933" y1="10.2218" x2="15.6725" y2="12.757" gradientUnits="userSpaceOnUse">
<stop stop-color="#FDBD41"/>
<stop offset="1" stop-color="#FEB334"/>
</linearGradient>
<linearGradient id="paint10_linear_109_4065" x1="16.8756" y1="10.668" x2="14.3715" y2="15.005" gradientUnits="userSpaceOnUse">
<stop stop-color="#F6942F"/>
<stop offset="1" stop-color="#EA6F11"/>
</linearGradient>
<linearGradient id="paint11_linear_109_4065" x1="15.123" y1="5.23723" x2="16.6304" y2="7.47094" gradientUnits="userSpaceOnUse">
<stop stop-color="#FDBD41"/>
<stop offset="1" stop-color="#FEB334"/>
</linearGradient>
<linearGradient id="paint12_linear_109_4065" x1="16.0243" y1="10.0898" x2="16.6135" y2="7.48608" gradientUnits="userSpaceOnUse">
<stop stop-color="#FD9D24"/>
<stop offset="1" stop-color="#FF9515"/>
</linearGradient>
<linearGradient id="paint13_linear_109_4065" x1="13.822" y1="2.72781" x2="11.4923" y2="1.6041" gradientUnits="userSpaceOnUse">
<stop stop-color="#FCC15B"/>
<stop offset="1" stop-color="#FEE998"/>
</linearGradient>
<linearGradient id="paint14_linear_109_4065" x1="13.8331" y1="2.58525" x2="14.9431" y2="5.05193" gradientUnits="userSpaceOnUse">
<stop stop-color="#FF9515"/>
<stop offset="1" stop-color="#FFBE41"/>
</linearGradient>
<radialGradient id="paint15_radial_109_4065" cx="0" cy="0" r="1" gradientUnits="userSpaceOnUse" gradientTransform="translate(8.73852 8.85469) scale(6.11531)">
<stop offset="0.8428" stop-color="#FAAA31"/>
<stop offset="1" stop-color="#F57E16"/>
</radialGradient>
<linearGradient id="paint16_linear_109_4065" x1="8.73843" y1="2.19325" x2="8.73843" y2="15.5164" gradientUnits="userSpaceOnUse">
<stop offset="0.0226" stop-color="#FD9A18"/>
<stop offset="0.3764" stop-color="#FEC752"/>
<stop offset="1" stop-color="#FFA422"/>
</linearGradient>
<linearGradient id="paint17_linear_109_4065" x1="8.73844" y1="1.32125" x2="8.73844" y2="16.344" gradientUnits="userSpaceOnUse">
<stop stop-color="#FFDB69"/>
<stop offset="0.1799" stop-color="#FEE7B0"/>
<stop offset="0.24" stop-color="#FEE9BA"/>
<stop offset="0.2592" stop-color="#FDECD0"/>
<stop offset="0.2953" stop-color="#FEDA92"/>
<stop offset="0.3254" stop-color="#FFCD64"/>
<stop offset="0.3405" stop-color="#FFC853"/>
<stop offset="0.7613" stop-color="#FF9114"/>
<stop offset="1" stop-color="#F57E16"/>
</linearGradient>
</defs>
</svg>
