<svg width="35" height="32" viewBox="0 0 35 32" fill="none" xmlns="http://www.w3.org/2000/svg">
<path opacity="0.1" d="M34.016 16C34.016 7.16344 26.5851 0 17.4187 0C8.25221 0 0.821335 7.16344 0.821335 16C0.821335 24.8366 8.25221 32 17.4187 32C26.5851 32 34.016 24.8366 34.016 16Z" fill="#EB1414"/>
<g clip-path="url(#clip0_1_1701)">
<g clip-path="url(#clip1_1_1701)">
<path d="M17.4815 24.3643C16.0928 24.3643 14.8799 24.1152 13.8428 23.6172C12.8116 23.1191 12.0088 22.4219 11.4346 21.5254C10.8604 20.6289 10.5733 19.5801 10.5733 18.3789C10.5733 17.7461 10.6231 17.1836 10.7227 16.6914C10.8282 16.1992 10.9541 15.7568 11.1006 15.3643C11.253 14.9658 11.4053 14.5908 11.5577 14.2393C11.71 13.8877 11.836 13.5391 11.9356 13.1934C12.0352 12.8477 12.085 12.4785 12.085 12.0859C12.085 11.8926 12.0733 11.6816 12.0499 11.4531C12.0323 11.2188 12.0235 11.0459 12.0235 10.9346C12.0235 10.7412 12.0791 10.583 12.1905 10.46C12.3018 10.3369 12.4483 10.2754 12.6299 10.2754C12.9405 10.2754 13.254 10.3691 13.5704 10.5566C13.8926 10.7441 14.1797 11.0049 14.4317 11.3389C14.6895 11.667 14.8858 12.0479 15.0206 12.4814L14.5811 12.5693C14.7217 12.3232 14.8096 12.1064 14.8448 11.9189C14.8858 11.7256 14.9063 11.5293 14.9063 11.3301C14.9004 10.75 14.792 10.1992 14.5811 9.67773C14.376 9.15625 14.1124 8.66113 13.7901 8.19238C13.4737 7.72363 13.1426 7.28125 12.7969 6.86523C12.7032 6.75977 12.6329 6.65137 12.586 6.54004C12.5391 6.42871 12.5157 6.31738 12.5157 6.20605C12.5157 5.9248 12.6358 5.71387 12.876 5.57324C13.1221 5.42676 13.4532 5.35352 13.8692 5.35352C14.6426 5.35352 15.4571 5.44727 16.3125 5.63477C17.1739 5.81641 18.0264 6.10352 18.8702 6.49609C19.7198 6.88281 20.5254 7.37793 21.2872 7.98145C22.0489 8.5791 22.7227 9.29102 23.3086 10.1172C23.9004 10.9375 24.3663 11.8779 24.7061 12.9385C25.0459 13.999 25.2159 15.1855 25.2159 16.498C25.2159 17.6758 25.0313 18.748 24.6622 19.7148C24.2989 20.6816 23.7745 21.5107 23.0889 22.2021C22.4034 22.8936 21.586 23.4268 20.6368 23.8018C19.6934 24.1768 18.6416 24.3643 17.4815 24.3643ZM17.5694 23.1338C18.835 23.1338 19.9454 22.8525 20.9004 22.29C21.8555 21.7334 22.5967 20.9541 23.1241 19.9521C23.6573 18.9502 23.9239 17.7842 23.9239 16.4541C23.9239 15.3291 23.7657 14.2715 23.4493 13.2812C23.1329 12.2852 22.6729 11.3799 22.0694 10.5654C21.4659 9.75098 20.7364 9.04785 19.8809 8.45605C19.0313 7.8584 18.0674 7.39258 16.9893 7.05859C15.917 6.72461 14.7481 6.54297 13.4825 6.51367L13.7198 6.23242C14.1944 6.67188 14.6016 7.16992 14.9415 7.72656C15.2813 8.2832 15.542 8.88086 15.7237 9.51953C15.9112 10.1523 16.0049 10.8057 16.0049 11.4795C16.0049 11.7607 15.9727 12.0684 15.9082 12.4023C15.8497 12.7305 15.7647 13.0439 15.6534 13.3428C15.5479 13.6416 15.419 13.8877 15.2666 14.0811C15.1202 14.2686 14.959 14.3623 14.7832 14.3623C14.7129 14.3623 14.6543 14.3418 14.6075 14.3008C14.5606 14.2539 14.5284 14.1836 14.5108 14.0898C14.417 13.6855 14.2999 13.3311 14.1592 13.0264C14.0186 12.7158 13.8516 12.4492 13.6582 12.2266C13.4707 11.998 13.2569 11.8135 13.0166 11.6729L13.2188 11.3213C13.2598 11.4561 13.295 11.5996 13.3243 11.752C13.3536 11.9043 13.3682 12.0654 13.3682 12.2354C13.3682 12.6924 13.3155 13.1084 13.21 13.4834C13.1104 13.8525 12.9815 14.21 12.8233 14.5557C12.6709 14.9014 12.5157 15.2588 12.3575 15.6279C12.2051 15.9971 12.0762 16.4043 11.9707 16.8496C11.8653 17.2949 11.8125 17.8047 11.8125 18.3789C11.8125 19.3281 12.0528 20.1602 12.5332 20.875C13.0137 21.584 13.6846 22.1377 14.5459 22.5361C15.4131 22.9346 16.4209 23.1338 17.5694 23.1338ZM17.6836 21.8945C16.8633 21.8945 16.2012 21.6689 15.6973 21.2178C15.1993 20.7607 14.9502 20.1631 14.9502 19.4248C14.9502 19.0381 15.0059 18.707 15.1172 18.4316C15.2344 18.1504 15.3692 17.8984 15.5215 17.6758C15.6739 17.4473 15.8145 17.2305 15.9434 17.0254C16.0723 16.8145 16.1543 16.583 16.1895 16.3311C16.1954 16.29 16.21 16.2666 16.2334 16.2607C16.2627 16.249 16.292 16.2549 16.3213 16.2783C16.5264 16.46 16.6963 16.6621 16.8311 16.8848C16.9717 17.1016 17.0977 17.3359 17.209 17.5879C17.4434 17.2715 17.6104 16.8057 17.71 16.1904C17.8096 15.5693 17.8213 14.8984 17.7452 14.1777C17.7393 14.1367 17.7481 14.1074 17.7715 14.0898C17.795 14.0664 17.8272 14.0635 17.8682 14.0811C18.5127 14.3857 19.0518 14.7842 19.4854 15.2764C19.919 15.7686 20.2442 16.3047 20.461 16.8848C20.6836 17.4648 20.795 18.042 20.795 18.6162C20.795 19.1963 20.6807 19.7354 20.4522 20.2334C20.2237 20.7314 19.878 21.1328 19.4151 21.4375C18.9581 21.7422 18.3809 21.8945 17.6836 21.8945Z" fill="#FF0000"/>
</g>
</g>
<defs>
<clipPath id="clip0_1_1701">
<rect width="20" height="20" fill="white" transform="translate(6.00005 4.99994)"/>
</clipPath>
<clipPath id="clip1_1_1701">
<rect width="38" height="38" fill="white" transform="translate(-2.99995 -3)"/>
</clipPath>
</defs>
</svg>
