<svg width="22" height="22" viewBox="0 0 22 22" fill="none" xmlns="http://www.w3.org/2000/svg">
<path d="M11 21.189C5.20654 21.189 0.407715 16.4004 0.407715 10.5967C0.407715 4.80322 5.19629 0.00439453 10.9897 0.00439453C16.7935 0.00439453 21.5923 4.80322 21.5923 10.5967C21.5923 16.4004 16.7935 21.189 11 21.189ZM5.81152 11.8682H10.9897C11.4512 11.8682 11.8101 11.5093 11.8101 11.0581V4.33154C11.8101 3.88037 11.4512 3.52148 10.9897 3.52148C10.5386 3.52148 10.1797 3.88037 10.1797 4.33154V10.248H5.81152C5.3501 10.248 5.00146 10.5967 5.00146 11.0581C5.00146 11.5093 5.3501 11.8682 5.81152 11.8682Z" fill="#5DCAFA"/>
</svg>
