<svg width="17" height="17" viewBox="0 0 17 17" fill="none" xmlns="http://www.w3.org/2000/svg">
<path d="M4.52344 9.33594C4.34635 9.33594 4.19792 9.27604 4.07812 9.15625C3.95833 9.03646 3.89844 8.88802 3.89844 8.71094C3.89844 8.53385 3.95833 8.38802 4.07812 8.27344C4.19792 8.15365 4.34635 8.09375 4.52344 8.09375H7.84375V3.59375C7.84375 3.42188 7.90365 3.27604 8.02344 3.15625C8.14323 3.03646 8.28906 2.97656 8.46094 2.97656C8.63802 2.97656 8.78646 3.03646 8.90625 3.15625C9.02604 3.27604 9.08594 3.42188 9.08594 3.59375V8.71094C9.08594 8.88802 9.02604 9.03646 8.90625 9.15625C8.78646 9.27604 8.63802 9.33594 8.46094 9.33594H4.52344ZM8.46875 16.4297C7.36458 16.4297 6.32552 16.2188 5.35156 15.7969C4.3776 15.3802 3.51823 14.7995 2.77344 14.0547C2.03385 13.3099 1.45312 12.4505 1.03125 11.4766C0.609375 10.5026 0.398438 9.46354 0.398438 8.35938C0.398438 7.25521 0.609375 6.21615 1.03125 5.24219C1.45312 4.26823 2.03385 3.41146 2.77344 2.67188C3.51823 1.92708 4.375 1.34375 5.34375 0.921875C6.31771 0.5 7.35677 0.289062 8.46094 0.289062C9.57031 0.289062 10.612 0.5 11.5859 0.921875C12.5599 1.34375 13.4193 1.92708 14.1641 2.67188C14.9089 3.41146 15.4922 4.26823 15.9141 5.24219C16.3359 6.21615 16.5469 7.25521 16.5469 8.35938C16.5469 9.46354 16.3359 10.5026 15.9141 11.4766C15.4922 12.4505 14.9089 13.3099 14.1641 14.0547C13.4193 14.7995 12.5599 15.3802 11.5859 15.7969C10.612 16.2188 9.57292 16.4297 8.46875 16.4297ZM8.46875 14.8359C9.36979 14.8359 10.2109 14.6693 10.9922 14.3359C11.7734 14.0026 12.4609 13.5391 13.0547 12.9453C13.6484 12.3516 14.112 11.6641 14.4453 10.8828C14.7786 10.1016 14.9453 9.26042 14.9453 8.35938C14.9453 7.46354 14.7786 6.625 14.4453 5.84375C14.112 5.05729 13.6484 4.36719 13.0547 3.77344C12.4609 3.17969 11.7708 2.71615 10.9844 2.38281C10.2031 2.04948 9.36198 1.88281 8.46094 1.88281C7.5651 1.88281 6.72396 2.04948 5.9375 2.38281C5.15625 2.71615 4.47135 3.17969 3.88281 3.77344C3.29427 4.36719 2.83333 5.05729 2.5 5.84375C2.16667 6.625 2 7.46354 2 8.35938C2 9.26042 2.16667 10.1016 2.5 10.8828C2.83333 11.6641 3.29427 12.3516 3.88281 12.9453C4.47656 13.5391 5.16406 14.0026 5.94531 14.3359C6.73177 14.6693 7.57292 14.8359 8.46875 14.8359Z" fill="black"/>
</svg>
