<svg width="26" height="23" viewBox="0 0 26 23" fill="none" xmlns="http://www.w3.org/2000/svg">
<path d="M0.880005 11.1201C0.880005 10.833 1.01331 10.5356 1.27991 10.3101L11.9645 1.33789C12.8566 0.599609 13.964 0.599609 14.8458 1.33789L19.7267 5.44971V3.64502C19.7267 3.18359 20.0343 2.88623 20.4957 2.88623H21.88C22.3312 2.88623 22.6285 3.18359 22.6285 3.64502V7.87988L25.5099 10.3101C25.7765 10.5254 25.9098 10.8022 25.9098 11.1509C25.9098 11.7354 25.4586 12.1045 24.8639 12.1045C24.546 12.1045 24.2692 11.9302 24.0231 11.7251L13.8409 3.18359C13.5641 2.9375 13.2462 2.9375 12.9694 3.18359L2.77698 11.7251C2.53088 11.9302 2.25403 12.1045 1.93616 12.1045C1.27991 12.1045 0.880005 11.6533 0.880005 11.1201ZM4.20227 20.3384V12.5146L12.7643 5.33691C13.1539 5.00879 13.6359 4.99854 14.0255 5.33691L22.5978 12.5249V20.3384C22.5978 21.8149 21.6749 22.6968 20.1573 22.6968H6.63245C5.12512 22.6968 4.20227 21.8149 4.20227 20.3384ZM16.0763 20.687V14.0322C16.0763 13.5503 15.7687 13.2427 15.2867 13.2427H11.5031C11.0211 13.2427 10.7032 13.5503 10.7032 14.0322V20.687H16.0763Z" fill="#5DCAFA"/>
</svg>
