<svg width="26" height="23" viewBox="0 0 26 23" fill="none" xmlns="http://www.w3.org/2000/svg">
<path d="M0.47998 11.1201C0.47998 10.833 0.613281 10.5356 0.879883 10.3101L11.5645 1.33789C12.4565 0.599609 13.564 0.599609 14.4458 1.33789L19.3267 5.44971V3.64502C19.3267 3.18359 19.6343 2.88623 20.0957 2.88623H21.48C21.9312 2.88623 22.2285 3.18359 22.2285 3.64502V7.87988L25.1099 10.3101C25.3765 10.5254 25.5098 10.8022 25.5098 11.1509C25.5098 11.7354 25.0586 12.1045 24.4639 12.1045C24.146 12.1045 23.8691 11.9302 23.623 11.7251L13.4409 3.18359C13.1641 2.9375 12.8462 2.9375 12.5693 3.18359L2.37695 11.7251C2.13086 11.9302 1.854 12.1045 1.53613 12.1045C0.879883 12.1045 0.47998 11.6533 0.47998 11.1201ZM3.80225 20.3384V12.5146L12.3643 5.33691C12.7539 5.00879 13.2358 4.99854 13.6255 5.33691L22.1978 12.5249V20.3384C22.1978 21.8149 21.2749 22.6968 19.7573 22.6968H6.23242C4.7251 22.6968 3.80225 21.8149 3.80225 20.3384ZM15.6763 20.687V14.0322C15.6763 13.5503 15.3687 13.2427 14.8867 13.2427H11.103C10.6211 13.2427 10.3032 13.5503 10.3032 14.0322V20.687H15.6763Z" fill="#474747"/>
</svg>
