<svg width="65" height="39" viewBox="0 0 65 39" fill="none" xmlns="http://www.w3.org/2000/svg">
<path d="M49.4982 20.7781C49.4982 19.2065 49.4956 17.6954 49.4995 16.1842C49.501 15.5732 49.7237 15.3474 50.3228 15.3416C50.9272 15.3358 51.5317 15.3394 52.1362 15.3406C52.9078 15.342 53.0969 15.5303 53.104 16.2922C53.1058 16.4834 53.1201 16.6745 53.1234 16.7474C54.0334 16.244 54.9008 15.5825 55.8799 15.2562C58.8918 14.2526 62.0858 15.5598 63.7879 18.3608C65.5718 21.2965 65.3584 25.5298 63.3332 28.3044C61.1436 31.3041 56.4016 32.1447 53.4665 29.3853C53.3837 29.3074 53.2951 29.2356 53.103 29.0687C53.103 29.3988 53.103 29.6079 53.103 29.817C53.103 32.4765 53.1035 35.1361 53.1027 37.7957C53.1024 38.5724 52.9125 38.7668 52.1556 38.7692C51.6116 38.7709 51.0676 38.7699 50.5236 38.7694C49.6439 38.7686 49.4984 38.6266 49.4983 37.7633C49.498 32.1217 49.4982 26.4801 49.4982 20.7781ZM59.7218 19.088C57.3301 17.4044 54.3723 18.2291 53.3421 20.9147C52.6952 22.6009 52.7893 24.2876 53.7278 25.8592C55.2067 28.3356 58.8649 28.4337 60.5087 26.0621C61.9462 23.9882 61.6218 20.863 59.7218 19.088Z" fill="white"/>
<path d="M28.5746 25.2528C28.5746 26.7638 28.5766 28.2143 28.5738 29.6649C28.5725 30.3388 28.3538 30.5517 27.6691 30.5548C27.0446 30.5576 26.42 30.5595 25.7955 30.5542C25.2019 30.5491 24.9627 30.3135 24.962 29.7211C24.9587 27.0416 24.9733 24.3619 24.9504 21.6826C24.9449 21.0435 24.8696 20.3948 24.7371 19.7693C24.561 18.9379 24.0013 18.4437 23.1499 18.3311C22.7329 18.276 22.3059 18.2276 21.8888 18.2557C20.4895 18.3501 19.6882 19.0049 19.3972 20.3733C19.2351 21.1354 19.1588 21.9276 19.1477 22.7077C19.1151 25.004 19.135 27.301 19.133 29.5977C19.1323 30.3687 18.9469 30.5532 18.176 30.5551C17.6119 30.5565 17.0478 30.5563 16.4837 30.5552C15.7013 30.5537 15.5261 30.3817 15.526 29.6062C15.5253 23.8241 15.5256 18.042 15.5256 12.26C15.5256 9.47972 15.5248 6.69949 15.5263 3.91925C15.5267 3.22962 15.691 3.06297 16.3701 3.05889C16.9946 3.05513 17.6192 3.05611 18.2437 3.05861C18.9595 3.06147 19.1327 3.23199 19.1329 3.94075C19.1339 7.88949 19.1334 11.8382 19.1334 15.787C19.1334 15.9819 19.1334 16.1768 19.1334 16.4589C19.4581 16.2166 19.6962 16.0107 19.9602 15.8465C21.7543 14.7305 23.6629 14.6387 25.5787 15.4025C27.5331 16.1817 28.2783 17.8834 28.4391 19.8203C28.587 21.6024 28.5373 23.401 28.5746 25.2528Z" fill="white"/>
<path d="M3.73892 21.9816C3.2484 25.0074 4.85398 27.2693 7.72574 27.6112C9.18018 27.7844 10.4127 27.253 11.4535 26.2504C11.6743 26.0376 11.8427 25.8496 12.2253 26.0041C12.636 26.17 12.5463 26.4582 12.548 26.7426C12.5535 27.6692 12.5708 28.5968 12.5342 29.522C12.526 29.7297 12.3683 30.0287 12.1936 30.1183C7.97103 32.2826 2.30668 30.7024 0.503514 25.8313C-1.39412 20.7051 2.30022 15.1664 7.75963 14.9526C9.29614 14.8925 10.7778 15.1009 12.1406 15.8456C12.334 15.9512 12.5221 16.2556 12.5318 16.476C12.5742 17.4411 12.5678 18.4097 12.5361 19.3756C12.5293 19.5838 12.3914 19.84 12.2314 19.9793C11.9362 20.2363 11.7074 20.0195 11.4716 19.7917C10.2975 18.6573 8.89607 18.1285 7.2758 18.4457C5.35542 18.8217 4.25501 20.09 3.73892 21.9816Z" fill="white"/>
<path d="M31.7136 9.78649C28.9688 5.11809 32.8778 0.594094 36.647 0C36.647 4.38143 36.647 8.75654 36.647 13.2302C34.5379 12.6943 32.9016 11.6074 31.7136 9.78649Z" fill="white"/>
<path d="M36.6791 25.0107C36.6791 26.601 36.6806 28.1309 36.6784 29.6607C36.6773 30.3395 36.4639 30.5517 35.7849 30.5547C35.1408 30.5576 34.4966 30.5523 33.8525 30.5561C33.3345 30.5592 33.0694 30.3105 33.0694 29.7896C33.069 25.2202 33.068 20.6508 33.0704 16.0814C33.0707 15.5958 33.3268 15.3434 33.8141 15.3406C34.4582 15.337 35.1024 15.3384 35.7466 15.3401C36.4866 15.3419 36.6783 15.528 36.6786 16.2543C36.6799 19.1529 36.6791 22.0516 36.6791 25.0107Z" fill="white"/>
<path d="M41.7889 23.0759C41.7889 20.8008 41.7887 18.5863 41.789 16.3717C41.7891 15.4799 41.9329 15.3403 42.8482 15.3399C43.4522 15.3397 44.0562 15.3358 44.6601 15.3413C45.1449 15.3456 45.398 15.5922 45.398 16.0834C45.3981 20.6534 45.3978 25.2235 45.3983 29.7935C45.3983 30.3167 45.134 30.5603 44.6168 30.5566C43.9524 30.5519 43.288 30.5596 42.6237 30.5542C42.0377 30.5495 41.7915 30.3065 41.7905 29.7196C41.7868 27.5252 41.789 25.3308 41.7889 23.0759Z" fill="white"/>
<path d="M46.094 9.85748C45.0249 11.4679 42.9625 12.9438 41.7026 12.9941C41.7026 8.71257 41.7026 4.43238 41.7026 0.145996C45.1512 0.844182 48.8762 5.28804 46.094 9.85748Z" fill="white"/>
</svg>
