<svg width="23" height="24" viewBox="0 0 23 24" fill="none" xmlns="http://www.w3.org/2000/svg">
<path d="M11.4868 23.1982C9.95426 23.1982 8.51123 22.9046 7.15771 22.3174C5.8042 21.7373 4.61182 20.9316 3.58057 19.9004C2.54932 18.8691 1.74007 17.6803 1.15283 16.334C0.572754 14.9805 0.282715 13.5339 0.282715 11.9941C0.282715 10.4616 0.572754 9.02214 1.15283 7.67578C1.74007 6.32227 2.54574 5.12988 3.56982 4.09863C4.60107 3.06738 5.79346 2.26172 7.14697 1.68164C8.50049 1.0944 9.94352 0.800781 11.4761 0.800781C13.0086 0.800781 14.4517 1.0944 15.8052 1.68164C17.1659 2.26172 18.3582 3.06738 19.3823 4.09863C20.4136 5.12988 21.2228 6.32227 21.8101 7.67578C22.3973 9.02214 22.6909 10.4616 22.6909 11.9941C22.6909 13.5339 22.3973 14.9805 21.8101 16.334C21.2228 17.6803 20.4136 18.8691 19.3823 19.9004C18.3582 20.9316 17.1694 21.7373 15.8159 22.3174C14.4624 22.9046 13.0194 23.1982 11.4868 23.1982ZM6.19092 13.7236C6.67074 13.7236 7.07894 13.5553 7.41553 13.2188C7.75928 12.875 7.93115 12.4632 7.93115 11.9834C7.93115 11.5036 7.75928 11.0954 7.41553 10.7588C7.07178 10.415 6.66357 10.2432 6.19092 10.2432C5.7111 10.2432 5.29932 10.415 4.95557 10.7588C4.61898 11.0954 4.45068 11.5036 4.45068 11.9834C4.45068 12.4632 4.61898 12.875 4.95557 13.2188C5.29932 13.5553 5.7111 13.7236 6.19092 13.7236ZM11.4868 13.7236C11.9666 13.7236 12.3748 13.5553 12.7114 13.2188C13.048 12.875 13.2163 12.4632 13.2163 11.9834C13.2163 11.5036 13.048 11.0954 12.7114 10.7588C12.3748 10.415 11.9666 10.2432 11.4868 10.2432C11.007 10.2432 10.5952 10.415 10.2515 10.7588C9.91488 11.0954 9.74658 11.5036 9.74658 11.9834C9.74658 12.4632 9.91488 12.875 10.2515 13.2188C10.5952 13.5553 11.007 13.7236 11.4868 13.7236ZM16.7827 13.7236C17.2554 13.7236 17.6636 13.5553 18.0073 13.2188C18.3511 12.875 18.5229 12.4632 18.5229 11.9834C18.5229 11.5036 18.3511 11.0954 18.0073 10.7588C17.6636 10.415 17.2554 10.2432 16.7827 10.2432C16.3029 10.2432 15.8911 10.415 15.5474 10.7588C15.2108 11.0954 15.0425 11.5036 15.0425 11.9834C15.0425 12.4632 15.2108 12.875 15.5474 13.2188C15.8911 13.5553 16.3029 13.7236 16.7827 13.7236Z" fill="black"/>
</svg>
