<svg width="22" height="22" viewBox="0 0 22 22" fill="none" xmlns="http://www.w3.org/2000/svg">
<path d="M11 21.1992C5.20654 21.1992 0.407715 16.4106 0.407715 10.6069C0.407715 4.81348 5.19629 0.0146484 10.9897 0.0146484C16.7935 0.0146484 21.5923 4.81348 21.5923 10.6069C21.5923 16.4106 16.7935 21.1992 11 21.1992ZM11 10.2583C12.4971 10.2686 13.707 8.98682 13.707 7.29492C13.707 5.72607 12.4971 4.41357 11 4.41357C9.50293 4.41357 8.29297 5.72607 8.29297 7.29492C8.29297 8.98682 9.50293 10.248 11 10.2583ZM6.29346 15.9492H15.7065C16.1782 15.9492 16.4038 15.6313 16.4038 15.2109C16.4038 14.0625 14.7017 11.0991 11 11.0991C7.29834 11.0991 5.59619 14.0625 5.59619 15.2109C5.59619 15.6313 5.82178 15.9492 6.29346 15.9492Z" fill="#5DCAFA"/>
</svg>
