<svg width="65" height="65" viewBox="0 0 65 65" fill="none" xmlns="http://www.w3.org/2000/svg">
<circle cx="32.5" cy="32.5" r="30.5" stroke="#FF2600" stroke-width="4"/>
<path d="M31.9999 24.7704V32.4371M31.9999 37.7079V37.6888M28.705 14.9785L14.3607 39.1029C12.8414 41.6582 14.6828 44.8954 17.6556 44.8954H46.3443C49.317 44.8954 51.1584 41.6582 49.639 39.1029L35.2947 14.9784C33.8089 12.4795 30.1908 12.4795 28.705 14.9785ZM32.4791 37.7079C32.4791 37.9724 32.2644 38.1871 31.9999 38.1871C31.7352 38.1871 31.5208 37.9724 31.5208 37.7079C31.5208 37.4433 31.7352 37.2288 31.9999 37.2288C32.2644 37.2288 32.4791 37.4433 32.4791 37.7079Z" stroke="#FF2600" stroke-width="2.875" stroke-linecap="round"/>
</svg>
