<svg width="65" height="64" viewBox="0 0 65 64" fill="none" xmlns="http://www.w3.org/2000/svg">
<path d="M19.2884 47.2583L39.3082 59.6996C30.1073 61.3562 24.0058 61.2517 21.0037 59.386C18.0016 57.5204 17.4298 53.4778 19.2884 47.2583Z" fill="#0A7AFF" fill-opacity="0.1"/>
<path fill-rule="evenodd" clip-rule="evenodd" d="M0.538086 32.0049C0.538086 14.3318 14.865 0.00488281 32.5381 0.00488281C50.2112 0.00488281 64.5381 14.3318 64.5381 32.0049C64.5381 49.678 50.2112 64.0049 32.5381 64.0049C14.865 64.0049 0.538086 49.678 0.538086 32.0049ZM60.9591 32.0049C60.9591 16.3084 48.2346 3.58383 32.5381 3.58383C16.8416 3.58383 4.11703 16.3084 4.11703 32.0049C4.11703 47.7014 16.8416 60.4259 32.5381 60.4259C48.2346 60.4259 60.9591 47.7014 60.9591 32.0049Z" fill="#007AFF"/>
<path d="M45.1251 57.6582L44.8693 57.8025V28.9719C44.8693 27.323 43.8214 27.0004 42.6369 27.0004H39.6048C39.3236 27.8224 38.915 28.2535 38.3788 28.2937H32.2435H32.4399H26.6703C26.6125 28.2979 26.556 28.2979 26.5009 28.2937H26.4739C25.5436 28.3602 25.0785 27.9291 25.0785 27.0004H22.2428C21.0583 27.0004 20.0104 27.323 20.0104 28.9719V57.8025L19.7546 57.6582V57.8025L18.0117 56.6745L18.4399 29.6504C18.5022 27.1501 19.9003 25.6893 22.6343 25.6892C25.3687 25.6892 28.6371 25.6892 32.4399 25.6892H42.2452L42.2464 25.6892C44.9136 25.6896 46.3091 27.0805 46.433 29.4708C46.436 29.53 46.4383 29.5898 46.4399 29.6504L46.868 56.6745L45.1251 57.8025V57.6582Z" fill="#007AFF"/>
<path d="M46.868 56.6745L46.4399 29.6504C46.4063 28.3056 45.9864 27.3224 45.18 26.7008C44.487 26.1668 43.5088 25.6892 42.2452 25.6892C39.511 25.6892 36.2426 25.6892 32.4399 25.6892C28.6371 25.6892 25.3687 25.6892 22.6345 25.6892C19.9004 25.6892 18.5022 27.15 18.4399 29.6504L18.0117 56.6745L20.0104 57.8025V28.9719C20.0104 27.323 21.0583 27.0004 22.2428 27.0004C23.0324 27.0004 24.0431 27.0004 25.2749 27.0004C25.585 27.9069 26.0501 28.338 26.6703 28.2937H32.6362H32.4399H38.4058C39.3361 28.3602 39.8012 27.9291 39.8012 27.0004C40.6777 27.0004 41.7083 27.0004 42.8927 27.0004C44.0772 27.0004 45.1251 27.3787 45.1251 28.9719V57.8025L46.868 56.6745Z" fill="#007AFF"/>
</svg>
