<svg width="44" height="41" viewBox="0 0 44 41" fill="none" xmlns="http://www.w3.org/2000/svg">
<g filter="url(#filter0_b_107_2235)">
<rect width="44" height="41" rx="4" fill="white" fill-opacity="0.28"/>
</g>
<path d="M22.9141 29.6367H13.2812C11.1406 29.6367 10.0703 28.8867 10.0703 27.3867C10.0703 26.5273 10.3203 25.6562 10.8203 24.7734C11.3281 23.8906 12.043 23.082 12.9648 22.3477C13.8945 21.6055 14.9961 21.0078 16.2695 20.5547C17.543 20.1016 18.9531 19.875 20.5 19.875C21.4531 19.875 22.3594 19.9688 23.2188 20.1562C24.0781 20.3438 24.8711 20.6055 25.5977 20.9414C25.2539 21.2148 24.9336 21.5195 24.6367 21.8555C24.3398 22.1914 24.0781 22.5547 23.8516 22.9453C23.375 22.7656 22.8555 22.625 22.293 22.5234C21.7305 22.4141 21.1328 22.3594 20.5 22.3594C19.2891 22.3594 18.2109 22.5195 17.2656 22.8398C16.3281 23.1523 15.5352 23.5547 14.8867 24.0469C14.2383 24.5312 13.7422 25.0312 13.3984 25.5469C13.0625 26.0547 12.8945 26.5078 12.8945 26.9062C12.8945 26.9922 12.9141 27.0547 12.9531 27.0938C13 27.1406 13.082 27.1641 13.1992 27.1641H22.5273C22.5273 27.625 22.5508 28.043 22.5977 28.418C22.6523 28.793 22.7578 29.1992 22.9141 29.6367ZM20.4883 18.6562C19.5195 18.6562 18.6367 18.4023 17.8398 17.8945C17.0508 17.3867 16.4219 16.7031 15.9531 15.8438C15.4844 14.9844 15.25 14.0312 15.25 12.9844C15.25 11.9609 15.4844 11.0312 15.9531 10.1953C16.4297 9.35156 17.0625 8.67969 17.8516 8.17969C18.6484 7.67969 19.5273 7.42969 20.4883 7.42969C21.4492 7.42969 22.3242 7.68359 23.1133 8.19141C23.9102 8.69141 24.5469 9.36328 25.0234 10.207C25.5 11.0508 25.7344 11.9805 25.7266 12.9961C25.7266 14.043 25.4922 14.9961 25.0234 15.8555C24.5547 16.707 23.9219 17.3867 23.125 17.8945C22.3359 18.4023 21.457 18.6562 20.4883 18.6562ZM20.4883 16.1719C20.9727 16.1719 21.418 16.0352 21.8242 15.7617C22.2383 15.4805 22.5664 15.1016 22.8086 14.625C23.0586 14.1406 23.1836 13.5977 23.1836 12.9961C23.1914 12.418 23.0703 11.8945 22.8203 11.4258C22.5703 10.957 22.2422 10.5859 21.8359 10.3125C21.4297 10.0391 20.9805 9.90234 20.4883 9.90234C20.0039 9.90234 19.5547 10.0391 19.1406 10.3125C18.7344 10.5859 18.4062 10.957 18.1562 11.4258C17.9141 11.8867 17.793 12.4062 17.793 12.9844C17.793 13.5781 17.9141 14.1172 18.1562 14.6016C18.3984 15.0859 18.7227 15.4688 19.1289 15.75C19.543 16.0312 19.9961 16.1719 20.4883 16.1719ZM30.4609 33.3633C29.6172 33.3633 28.8203 33.2031 28.0703 32.8828C27.3281 32.5625 26.6719 32.1172 26.1016 31.5469C25.5391 30.9766 25.0938 30.3164 24.7656 29.5664C24.4453 28.8242 24.2852 28.0312 24.2852 27.1875C24.2852 26.3438 24.4453 25.5508 24.7656 24.8086C25.0938 24.0664 25.5391 23.4102 26.1016 22.8398C26.6719 22.2695 27.3281 21.8242 28.0703 21.5039C28.8203 21.1836 29.6172 21.0234 30.4609 21.0234C31.3047 21.0234 32.0977 21.1836 32.8398 21.5039C33.5898 21.8242 34.2461 22.2695 34.8086 22.8398C35.3789 23.4023 35.8242 24.0586 36.1445 24.8086C36.4648 25.5508 36.625 26.3438 36.625 27.1875C36.625 28.0312 36.4648 28.8242 36.1445 29.5664C35.8242 30.3164 35.3789 30.9727 34.8086 31.5352C34.2383 32.1055 33.5781 32.5508 32.8281 32.8711C32.0859 33.1992 31.2969 33.3633 30.4609 33.3633ZM30.4492 31.1836C30.7305 31.1836 30.957 31.0977 31.1289 30.9258C31.3008 30.7539 31.3867 30.5273 31.3867 30.2461V28.1367H33.4961C33.7695 28.1367 33.9922 28.0508 34.1641 27.8789C34.3438 27.707 34.4336 27.4805 34.4336 27.1992C34.4336 26.9102 34.3438 26.6836 34.1641 26.5195C33.9922 26.3477 33.7695 26.2617 33.4961 26.2617H31.3867V24.1641C31.3867 23.875 31.3008 23.6484 31.1289 23.4844C30.957 23.3125 30.7305 23.2266 30.4492 23.2266C30.168 23.2266 29.9414 23.3125 29.7695 23.4844C29.5977 23.6562 29.5117 23.8828 29.5117 24.1641V26.2617H27.4023C27.1211 26.2617 26.8945 26.3477 26.7227 26.5195C26.5508 26.6836 26.4648 26.9102 26.4648 27.1992C26.4648 27.4805 26.5508 27.707 26.7227 27.8789C26.9023 28.0508 27.1289 28.1367 27.4023 28.1367H29.5117V30.2461C29.5117 30.5273 29.5977 30.7539 29.7695 30.9258C29.9414 31.0977 30.168 31.1836 30.4492 31.1836Z" fill="white"/>
<defs>
<filter id="filter0_b_107_2235" x="-8" y="-8" width="60" height="57" filterUnits="userSpaceOnUse" color-interpolation-filters="sRGB">
<feFlood flood-opacity="0" result="BackgroundImageFix"/>
<feGaussianBlur in="BackgroundImageFix" stdDeviation="4"/>
<feComposite in2="SourceAlpha" operator="in" result="effect1_backgroundBlur_107_2235"/>
<feBlend mode="normal" in="SourceGraphic" in2="effect1_backgroundBlur_107_2235" result="shape"/>
</filter>
</defs>
</svg>
