<svg width="35" height="32" viewBox="0 0 35 32" fill="none" xmlns="http://www.w3.org/2000/svg">
<path opacity="0.19" d="M34.016 16C34.016 7.16344 26.5851 0 17.4186 0C8.25217 0 0.821289 7.16344 0.821289 16C0.821289 24.8366 8.25217 32 17.4186 32C26.5851 32 34.016 24.8366 34.016 16Z" fill="#FFF50D"/>
<path d="M24.2227 19.8799C24.2227 20.1201 24.1406 20.3193 23.9766 20.4775C23.8184 20.6357 23.6338 20.7148 23.4229 20.7148C23.2061 20.7148 23.0186 20.6328 22.8604 20.4688C22.708 20.3047 22.6318 20.1201 22.6318 19.915V16.6631L22.79 12.5586L21.3398 14.2021L12.6123 22.9209C12.4541 23.0791 12.2695 23.1582 12.0586 23.1582C11.9121 23.1582 11.7773 23.1201 11.6543 23.0439C11.5312 22.9678 11.4316 22.8682 11.3555 22.7451C11.2793 22.6162 11.2412 22.4814 11.2412 22.3408C11.2412 22.1357 11.3232 21.9512 11.4873 21.7871L20.1973 13.0596L21.832 11.627L17.543 11.7676H14.4844C14.2793 11.7676 14.0947 11.6914 13.9307 11.5391C13.7725 11.3809 13.6934 11.1963 13.6934 10.9854C13.6934 10.7744 13.7695 10.5898 13.9219 10.4316C14.0742 10.2676 14.2734 10.1855 14.5195 10.1855H23.3613C23.625 10.1855 23.833 10.2646 23.9854 10.4229C24.1377 10.5811 24.2139 10.7861 24.2139 11.0381L24.2227 19.8799Z" fill="#FFD600"/>
</svg>
