<svg width="35" height="32" viewBox="0 0 35 32" fill="none" xmlns="http://www.w3.org/2000/svg">
<path opacity="0.2" d="M34.016 16.0001C34.016 7.1635 26.5851 6.10352e-05 17.4186 6.10352e-05C8.25217 6.10352e-05 0.821289 7.1635 0.821289 16.0001C0.821289 24.8366 8.25217 32.0001 17.4186 32.0001C26.5851 32.0001 34.016 24.8366 34.016 16.0001Z" fill="#41BF6C"/>
<path d="M11.5371 24.1973C11.3555 24.0625 11.2441 23.8809 11.2031 23.6523C11.168 23.4238 11.2061 23.1514 11.3174 22.835L13.1543 17.3682L8.46094 13.9932C8.18555 13.7998 7.99512 13.6006 7.88965 13.3955C7.78418 13.1904 7.7666 12.9795 7.83691 12.7627C7.90723 12.5518 8.04492 12.3936 8.25 12.2881C8.45508 12.1826 8.72754 12.1328 9.06738 12.1387L14.8242 12.1738L16.5732 6.68066C16.6787 6.3584 16.8105 6.11523 16.9688 5.95117C17.1328 5.78711 17.3262 5.70508 17.5488 5.70508C17.7773 5.70508 17.9707 5.78711 18.1289 5.95117C18.293 6.11523 18.4277 6.3584 18.5332 6.68066L20.2822 12.1738L26.0391 12.1387C26.3789 12.1328 26.6514 12.1826 26.8564 12.2881C27.0615 12.3936 27.1992 12.5518 27.2695 12.7627C27.3398 12.9795 27.3223 13.1904 27.2168 13.3955C27.1113 13.6006 26.9209 13.7998 26.6455 13.9932L21.9521 17.3682L23.7891 22.835C23.9004 23.1514 23.9355 23.4238 23.8945 23.6523C23.8594 23.8809 23.751 24.0625 23.5693 24.1973C23.3877 24.3379 23.1826 24.3848 22.9541 24.3379C22.7256 24.2969 22.4766 24.1797 22.207 23.9863L17.5488 20.5674L12.8994 23.9863C12.6299 24.1797 12.3809 24.2969 12.1523 24.3379C11.9238 24.3848 11.7188 24.3379 11.5371 24.1973ZM12.8027 22.457C12.8145 22.4746 12.8408 22.4688 12.8818 22.4395L17.1094 19.2139C17.25 19.1025 17.3965 19.0469 17.5488 19.0469C17.707 19.0469 17.8564 19.1025 17.9971 19.2139L22.2246 22.4395C22.2656 22.4688 22.292 22.4746 22.3037 22.457C22.3096 22.4453 22.3096 22.4189 22.3037 22.3779L20.5547 17.3506C20.5137 17.2393 20.4932 17.1338 20.4932 17.0342C20.499 16.9346 20.5283 16.8438 20.5811 16.7617C20.6338 16.6738 20.71 16.5947 20.8096 16.5244L25.1865 13.501C25.2275 13.4775 25.2422 13.4541 25.2305 13.4307C25.2246 13.4131 25.1982 13.4043 25.1514 13.4043L19.834 13.501C19.6523 13.5068 19.5029 13.4717 19.3857 13.3955C19.2686 13.3135 19.1836 13.1816 19.1309 13L17.6016 7.91113C17.5898 7.86426 17.5723 7.84082 17.5488 7.84082C17.5312 7.84082 17.5166 7.86426 17.5049 7.91113L15.9756 13C15.9229 13.1816 15.8379 13.3135 15.7207 13.3955C15.6035 13.4717 15.4541 13.5068 15.2725 13.501L9.95508 13.4043C9.9082 13.4043 9.88184 13.4131 9.87598 13.4307C9.86426 13.4541 9.87891 13.4775 9.91992 13.501L14.2969 16.5244C14.3965 16.5947 14.4727 16.6738 14.5254 16.7617C14.5781 16.8438 14.6045 16.9346 14.6045 17.0342C14.6104 17.1338 14.5928 17.2393 14.5518 17.3506L12.8027 22.3779C12.791 22.4189 12.791 22.4453 12.8027 22.457Z" fill="#41BF6C"/>
</svg>
