<svg width="20" height="19" viewBox="0 0 20 19" fill="none" xmlns="http://www.w3.org/2000/svg">
<path d="M9.85449 18.9355C8.58301 18.9355 7.3877 18.6924 6.26855 18.2061C5.14941 17.7256 4.16211 17.0576 3.30664 16.2021C2.45117 15.3525 1.78027 14.3682 1.29395 13.249C0.813477 12.1299 0.573242 10.9316 0.573242 9.6543C0.573242 8.38281 0.813477 7.1875 1.29395 6.06836C1.78027 4.94922 2.44824 3.96191 3.29785 3.10645C4.15332 2.25098 5.14062 1.58301 6.25977 1.10254C7.38477 0.616211 8.58301 0.373047 9.85449 0.373047C11.126 0.373047 12.3213 0.616211 13.4404 1.10254C14.5654 1.58301 15.5527 2.25098 16.4023 3.10645C17.2578 3.96191 17.9287 4.94922 18.415 6.06836C18.9014 7.1875 19.1445 8.38281 19.1445 9.6543C19.1445 10.9316 18.9014 12.1299 18.415 13.249C17.9287 14.3682 17.2578 15.3525 16.4023 16.2021C15.5527 17.0576 14.5684 17.7256 13.4492 18.2061C12.3301 18.6924 11.1318 18.9355 9.85449 18.9355ZM9.85449 16.624C10.8213 16.624 11.7266 16.4424 12.5703 16.0791C13.4141 15.7217 14.1553 15.2266 14.7939 14.5938C15.4326 13.9551 15.9307 13.2139 16.2881 12.3701C16.6514 11.5264 16.833 10.6211 16.833 9.6543C16.833 8.6875 16.6514 7.78516 16.2881 6.94727C15.9248 6.10352 15.4238 5.3623 14.7852 4.72363C14.1523 4.08496 13.4141 3.58691 12.5703 3.22949C11.7266 2.86621 10.8213 2.68457 9.85449 2.68457C8.8877 2.68457 7.98242 2.86621 7.13867 3.22949C6.30078 3.58691 5.5625 4.08496 4.92383 4.72363C4.28516 5.3623 3.78711 6.10352 3.42969 6.94727C3.07227 7.78516 2.89355 8.6875 2.89355 9.6543C2.89355 10.6211 3.07227 11.5264 3.42969 12.3701C3.78711 13.2139 4.28516 13.9551 4.92383 14.5938C5.5625 15.2266 6.30371 15.7217 7.14746 16.0791C7.99121 16.4424 8.89355 16.624 9.85449 16.624ZM6.40039 13.2666C5.9375 13.2666 5.58008 13.1465 5.32812 12.9062C5.08203 12.6602 4.95898 12.3057 4.95898 11.8428V8.81934H14.75V11.8428C14.75 12.3057 14.627 12.6602 14.3809 12.9062C14.1348 13.1465 13.7803 13.2666 13.3174 13.2666H6.40039ZM6.72559 11.9131H7.72754C7.99121 11.9131 8.12305 11.7812 8.12305 11.5176V10.7705C8.12305 10.5068 7.99121 10.375 7.72754 10.375H6.72559C6.45605 10.375 6.32129 10.5068 6.32129 10.7705V11.5176C6.32129 11.7812 6.45605 11.9131 6.72559 11.9131ZM4.95898 7.81738V7.46582C4.95898 7.00879 5.08203 6.65723 5.32812 6.41113C5.58008 6.16504 5.9375 6.04199 6.40039 6.04199H13.3174C13.7803 6.04199 14.1348 6.16504 14.3809 6.41113C14.627 6.65723 14.75 7.00879 14.75 7.46582V7.81738H4.95898Z" fill="#5DCAFA"/>
</svg>
