<svg width="21" height="21" viewBox="0 0 21 21" fill="none" xmlns="http://www.w3.org/2000/svg">
<path d="M9.5899 0.339093L7.4917 2.1661H10.5008V7.24557e-06C10.176 -0.00104256 9.85095 0.111986 9.5899 0.339093Z" fill="#F9F9F9"/>
<path d="M11.4001 0.336987C11.1419 0.113379 10.8217 0.0010498 10.5012 0V2.16609H13.5102L11.4001 0.336987Z" fill="url(#paint0_linear_107_2371)"/>
<path d="M3.18122 3.33435L2.74835 6.08273L5.05337 4.14865L3.66098 2.48926C3.41148 2.69712 3.23511 2.99281 3.18122 3.33435Z" fill="#F9F9F9"/>
<path d="M4.5666 2.16962C4.22506 2.16402 3.90732 2.28405 3.66132 2.48946L5.0537 4.14885L7.35872 2.21476L4.5666 2.16962Z" fill="url(#paint1_linear_107_2371)"/>
<path d="M0.197678 9.74899L1.63241 12.1327L2.15486 9.1695L0.022011 8.79297C-0.0357282 9.11281 0.0192115 9.45259 0.197678 9.74899Z" fill="#F9F9F9"/>
<path d="M0.509842 7.96574C0.244942 8.18129 0.078723 8.47734 0.0220337 8.79263L2.15523 9.16881L2.67768 6.20557L0.509842 7.96574Z" fill="url(#paint2_linear_107_2371)"/>
<path d="M2.03481 16.5804L4.66631 17.4839L3.16195 14.8779L1.28595 15.961C1.44727 16.243 1.70762 16.468 2.03481 16.5804Z" fill="url(#paint3_linear_107_2371)"/>
<path d="M1.12817 15.0137C1.06344 15.3489 1.12643 15.6828 1.28565 15.961L3.16164 14.8779L1.65728 12.272L1.12817 15.0137Z" fill="url(#paint4_linear_107_2371)"/>
<path d="M7.83322 20.6327L10.4297 19.6336L7.60226 18.6045L6.86145 20.6401C7.16624 20.752 7.51058 20.7569 7.83322 20.6327Z" fill="url(#paint5_linear_107_2371)"/>
<path d="M6.13189 20.0151C6.29775 20.3136 6.56055 20.5288 6.8615 20.6394L7.60231 18.6039L4.77484 17.5747L6.13189 20.0151Z" fill="url(#paint6_linear_107_2371)"/>
<path d="M14.8802 20.0097L16.2271 17.5752L13.3997 18.6044L14.1405 20.6399C14.4456 20.5297 14.7126 20.3124 14.8802 20.0097Z" fill="url(#paint7_linear_107_2371)"/>
<path d="M13.1799 20.6305C13.499 20.7526 13.8385 20.7484 14.1401 20.6396L13.3993 18.604L10.5718 19.6332L13.1799 20.6305Z" fill="url(#paint8_linear_107_2371)"/>
<path d="M19.8776 15.0025L19.3447 12.272L17.8403 14.8779L19.7163 15.961C19.8794 15.68 19.9441 15.3419 19.8776 15.0025Z" fill="url(#paint9_linear_107_2371)"/>
<path d="M18.9744 16.5713C19.2971 16.4596 19.5546 16.2381 19.7159 15.961L17.8399 14.8779L16.3356 17.4839L18.9744 16.5713Z" fill="url(#paint10_linear_107_2371)"/>
<path d="M20.4876 7.95454L18.3239 6.20557L18.8464 9.16881L20.9796 8.79263C20.9246 8.47279 20.7567 8.1722 20.4876 7.95454Z" fill="url(#paint11_linear_107_2371)"/>
<path d="M20.8039 9.73709C20.9796 9.4442 21.0345 9.10896 20.9796 8.79297L18.8464 9.16915L19.3688 12.1324L20.8039 9.73709Z" fill="url(#paint12_linear_107_2371)"/>
<path d="M16.4248 2.16381L13.6432 2.21455L15.9482 4.14863L17.3406 2.48924C17.0925 2.27998 16.7709 2.15751 16.4248 2.16381Z" fill="url(#paint13_linear_107_2371)"/>
<path d="M17.8127 3.32574C17.7588 2.9884 17.5856 2.69656 17.3406 2.48975L15.9482 4.14913L18.2533 6.08322L17.8127 3.32574Z" fill="url(#paint14_linear_107_2371)"/>
<path d="M10.5008 17.9892C14.5593 17.9892 17.8494 14.6991 17.8494 10.6406C17.8494 6.58208 14.5593 3.29199 10.5008 3.29199C6.44225 3.29199 3.15216 6.58208 3.15216 10.6406C3.15216 14.6991 6.44225 17.9892 10.5008 17.9892Z" fill="url(#paint15_radial_107_2371)"/>
<path d="M10.5008 2.63574C6.07969 2.63574 2.49567 6.21942 2.49567 10.6405C2.49567 15.0616 6.07969 18.6456 10.5008 18.6456C14.9218 18.6456 18.5059 15.0616 18.5059 10.6405C18.5059 6.21942 14.9218 2.63574 10.5008 2.63574ZM10.5008 17.9884C6.44257 17.9884 3.15284 14.6987 3.15284 10.6405C3.15284 6.5823 6.44257 3.29257 10.5008 3.29257C14.5589 3.29257 17.8487 6.5823 17.8487 10.6405C17.8487 14.6987 14.5589 17.9884 10.5008 17.9884Z" fill="url(#paint16_linear_107_2371)"/>
<path d="M10.5008 1.61426C5.51565 1.61426 1.47461 5.6553 1.47461 10.6405C1.47461 15.6256 5.51565 19.6667 10.5008 19.6667C15.486 19.6667 19.527 15.6256 19.527 10.6405C19.527 5.6553 15.486 1.61426 10.5008 1.61426ZM10.5008 18.6417C6.08184 18.6417 2.49957 15.0594 2.49957 10.6405C2.49957 6.22149 6.08184 2.63956 10.5008 2.63956C14.9198 2.63956 18.5021 6.22184 18.5021 10.6408C18.5021 15.0598 14.9198 18.6417 10.5008 18.6417Z" fill="url(#paint17_linear_107_2371)"/>
<path d="M8.47469 14.3231C8.35221 14.3231 8.23849 14.2839 8.13805 14.2139C8.12511 14.2051 8.11636 14.1964 8.10761 14.1876C8.09886 14.1834 8.09431 14.1747 8.09011 14.1701C8.07262 14.1569 8.06387 14.1439 8.05092 14.131C8.04217 14.1222 8.03762 14.1135 8.02922 14.1047L8.02503 14.1005C8.01628 14.0918 8.01173 14.083 8.00753 14.0743L7.99878 14.061C7.98128 14.0347 7.96834 14.0085 7.95504 13.9822C7.95084 13.9693 7.94629 13.956 7.94174 13.943C7.93754 13.9297 7.93299 13.9126 7.92879 13.8993C7.92424 13.8818 7.92005 13.8601 7.9155 13.8381C7.9155 13.8293 7.9113 13.8164 7.9113 13.8076C7.9113 13.7901 7.9071 13.7726 7.9071 13.7551C7.9071 13.7247 7.9113 13.6939 7.91585 13.6589L8.25248 11.7007L6.83175 10.3149C6.80551 10.2887 6.77926 10.2582 6.75756 10.2274C6.73132 10.1882 6.71382 10.1575 6.70088 10.1225C6.69668 10.1095 6.68793 10.092 6.68338 10.07C6.67008 10.0175 6.66168 9.96499 6.66168 9.9083C6.66168 9.89081 6.66168 9.87786 6.66168 9.86036C6.66168 9.83412 6.66588 9.80787 6.67463 9.78163C6.67463 9.77743 6.67883 9.76868 6.67883 9.76413C6.68338 9.75083 6.68338 9.73788 6.68758 9.72494C6.68758 9.72074 6.69178 9.71164 6.69633 9.69869C6.70053 9.68539 6.70507 9.67245 6.71382 9.6595C6.72677 9.63325 6.74007 9.60701 6.76176 9.57657C6.77051 9.55907 6.78346 9.54612 6.79676 9.53282C6.79676 9.53282 6.79676 9.52862 6.80096 9.52862L6.87094 9.41489H6.93218C6.94093 9.41035 6.94513 9.40615 6.95388 9.4016C6.96263 9.3974 6.98012 9.38865 6.99307 9.3799C7.01057 9.37115 7.03226 9.3624 7.05851 9.35366C7.06726 9.34946 7.0802 9.34491 7.0935 9.34491C7.111 9.34071 7.12849 9.33616 7.15019 9.33161L9.11717 9.04746L9.98256 7.27715C10.0788 7.08049 10.2755 6.95801 10.4938 6.95801C10.6513 6.95801 10.8042 7.02345 10.9134 7.13717C10.9309 7.15887 10.9484 7.17637 10.9613 7.19841C10.9788 7.22466 10.9963 7.2509 11.0093 7.27715L11.8879 9.05166L13.8504 9.33581C14.0691 9.36625 14.2483 9.51953 14.3137 9.72914C14.3182 9.74243 14.3224 9.75083 14.3224 9.76413C14.3224 9.76833 14.3224 9.76833 14.3266 9.77288C14.3308 9.78618 14.3354 9.79912 14.3354 9.81662C14.3354 9.82082 14.3354 9.82082 14.3354 9.82537C14.3396 9.84286 14.3396 9.85581 14.3396 9.87331C14.3441 9.95624 14.3308 10.0437 14.2958 10.1225C14.2825 10.1575 14.2654 10.1879 14.2434 10.2187L14.2388 10.2229C14.2171 10.2533 14.1909 10.2841 14.1646 10.3104L12.7439 11.6961L13.0805 13.6498C13.1155 13.864 13.0326 14.0781 12.8531 14.2093C12.8093 14.2398 12.7568 14.2706 12.7043 14.2881C12.6998 14.2881 12.6956 14.2926 12.6868 14.2926C12.6302 14.3101 12.5731 14.3189 12.5164 14.3189C12.4247 14.3189 12.3327 14.2972 12.2498 14.2534L10.4928 13.331L8.73574 14.2534C8.65806 14.3014 8.56637 14.3231 8.47469 14.3231Z" fill="#C4C0BC"/>
<path d="M10.4939 7.23779V10.8526L9.28729 9.30975L10.2314 7.39981C10.2885 7.29483 10.3934 7.23779 10.4939 7.23779Z" fill="#FFFAF6"/>
<path d="M14.0474 9.82131L10.498 10.8529L11.7043 9.31006L13.8112 9.6159C13.9295 9.6376 14.0124 9.72053 14.0474 9.82131Z" fill="#FFFEFD"/>
<path d="M12.6883 13.9865L10.4942 10.8525L12.4437 11.6L12.802 13.6982C12.8279 13.8207 12.7754 13.9253 12.6883 13.9865Z" fill="#FFFEFC"/>
<path d="M10.4939 10.8525V13.0162L8.60983 14.0082C8.50065 14.0649 8.38692 14.0474 8.29944 13.9865L10.4939 10.8525Z" fill="#D8D1C8"/>
<path d="M11.7004 9.30975L10.4938 10.8526V7.23779C10.5726 7.23779 10.6513 7.26824 10.708 7.32948C10.7167 7.33822 10.7255 7.35117 10.7342 7.36447C10.743 7.37777 10.7517 7.39071 10.7559 7.40366L11.7004 9.30975Z" fill="#F3EFE7"/>
<path d="M14.0387 10.0177C14.0299 10.0352 14.0212 10.0527 14.0125 10.0701C13.9992 10.0876 13.9862 10.1006 13.9733 10.1181L12.4479 11.6043L10.4984 10.8568L14.0478 9.8252C14.0478 9.82939 14.052 9.83394 14.052 9.83849C14.052 9.84304 14.0565 9.84724 14.0565 9.85599C14.0565 9.86054 14.0565 9.86054 14.0565 9.86054C14.0565 9.86474 14.0565 9.86929 14.0565 9.87349C14.0565 9.88223 14.0565 9.88678 14.0565 9.89518C14.0607 9.93437 14.0562 9.97812 14.0387 10.0177Z" fill="#E3E3E3"/>
<path d="M12.6883 13.9865C12.6666 14.004 12.6403 14.017 12.6095 14.0257C12.6053 14.0257 12.6053 14.0257 12.6008 14.0299C12.5308 14.0516 12.4521 14.0474 12.3779 14.0082L10.4938 13.0162V10.8525L12.6883 13.9865Z" fill="#F4EFE9"/>
<path d="M10.4939 10.8525L8.29978 13.9865C8.29558 13.982 8.29103 13.9778 8.28683 13.9733C8.28263 13.9691 8.27808 13.9645 8.27353 13.96C8.26934 13.9558 8.26479 13.9512 8.25604 13.9425C8.25149 13.9383 8.24729 13.9337 8.24274 13.9292C8.23819 13.9246 8.23854 13.925 8.23854 13.9204C8.23434 13.9162 8.22979 13.9117 8.22979 13.9071C8.22104 13.8942 8.2123 13.8809 8.2081 13.8679C8.2039 13.8637 8.2039 13.8546 8.19935 13.8462C8.19515 13.8375 8.19515 13.8329 8.1906 13.8245C8.1864 13.8158 8.1864 13.8028 8.1864 13.7941C8.1864 13.7899 8.1864 13.7808 8.1864 13.7766C8.1864 13.7678 8.1864 13.7591 8.1864 13.7503C8.1864 13.7328 8.1864 13.7153 8.1906 13.6979L8.54893 11.5996L10.4939 10.8525Z" fill="#F4F4F4"/>
<path d="M10.4938 10.8526L6.94446 9.82102C6.94446 9.81682 6.94866 9.81227 6.94866 9.80772C6.95286 9.79897 6.95286 9.79022 6.95741 9.78603C6.96615 9.76853 6.9749 9.75558 6.98365 9.74228C6.98785 9.73354 6.9924 9.72899 7.00115 9.72059C7.0057 9.71639 7.0099 9.70729 7.01864 9.70309C7.02284 9.69889 7.03194 9.69014 7.03614 9.68559C7.04034 9.68105 7.04909 9.67685 7.05364 9.6723C7.06239 9.6681 7.07113 9.659 7.07988 9.6548C7.08408 9.6506 7.09283 9.64605 7.10158 9.64605C7.11488 9.64185 7.12327 9.6373 7.13657 9.63275C7.14077 9.63275 7.14532 9.62856 7.15407 9.62856C7.16282 9.62436 7.17576 9.62436 7.18906 9.61981L9.29601 9.31396L10.4938 10.8526Z" fill="#EEEAE1"/>
<path d="M10.4939 10.8522L8.54894 11.6039L7.02358 10.1177C7.00608 10.1044 6.99733 10.0873 6.98439 10.0698C6.97564 10.0523 6.96269 10.0348 6.95814 10.0173C6.95394 10.0085 6.94939 9.99977 6.94939 9.99102C6.94064 9.96478 6.9361 9.93433 6.9361 9.90809C6.9361 9.89934 6.9361 9.89059 6.9361 9.88184C6.9361 9.8689 6.9361 9.86015 6.94064 9.84685C6.94064 9.84265 6.94484 9.8381 6.94484 9.82935C6.94484 9.82515 6.94904 9.82061 6.94904 9.81641L10.4939 10.8522Z" fill="#FFFEFC"/>
<defs>
<linearGradient id="paint0_linear_107_2371" x1="10.6483" y1="1.08305" x2="13.4115" y2="1.08305" gradientUnits="userSpaceOnUse">
<stop stop-color="#F3F3F3"/>
<stop offset="1" stop-color="#D3D3D3"/>
</linearGradient>
<linearGradient id="paint1_linear_107_2371" x1="4.50268" y1="3.19659" x2="7.26039" y2="0.882419" gradientUnits="userSpaceOnUse">
<stop stop-color="#F9F9F9"/>
<stop offset="1" stop-color="#DCDCDC"/>
</linearGradient>
<linearGradient id="paint2_linear_107_2371" x1="2.72704" y1="6.19937" x2="1.17086" y2="8.75595" gradientUnits="userSpaceOnUse">
<stop stop-color="#C0C0C0"/>
<stop offset="1" stop-color="#F5F5F5"/>
</linearGradient>
<linearGradient id="paint3_linear_107_2371" x1="1.99543" y1="15.3588" x2="4.70022" y2="17.1373" gradientUnits="userSpaceOnUse">
<stop stop-color="#FEFEFE"/>
<stop offset="1" stop-color="#999999"/>
</linearGradient>
<linearGradient id="paint4_linear_107_2371" x1="1.68812" y1="12.3287" x2="2.1698" y2="15.3669" gradientUnits="userSpaceOnUse">
<stop stop-color="#D6D6D6"/>
<stop offset="1" stop-color="#ECECEC"/>
</linearGradient>
<linearGradient id="paint5_linear_107_2371" x1="7.36727" y1="19.6585" x2="10.035" y2="20.2514" gradientUnits="userSpaceOnUse">
<stop stop-color="#F7F7F7"/>
<stop offset="1" stop-color="#C0C0C0"/>
</linearGradient>
<linearGradient id="paint6_linear_107_2371" x1="4.64142" y1="17.5515" x2="7.08684" y2="19.5523" gradientUnits="userSpaceOnUse">
<stop stop-color="#EBEBEB"/>
<stop offset="1" stop-color="#C0C0C0"/>
</linearGradient>
<linearGradient id="paint7_linear_107_2371" x1="16.2377" y1="17.5578" x2="13.7985" y2="19.6574" gradientUnits="userSpaceOnUse">
<stop stop-color="#FDFDFD"/>
<stop offset="1" stop-color="#C4C4C4"/>
</linearGradient>
<linearGradient id="paint8_linear_107_2371" x1="10.5825" y1="19.828" x2="13.6949" y2="19.6551" gradientUnits="userSpaceOnUse">
<stop stop-color="#B5B5B5"/>
<stop offset="1" stop-color="#929292"/>
</linearGradient>
<linearGradient id="paint9_linear_107_2371" x1="19.4591" y1="12.2829" x2="18.8333" y2="15.3294" gradientUnits="userSpaceOnUse">
<stop stop-color="#CCCCCC"/>
<stop offset="1" stop-color="#EEEEEE"/>
</linearGradient>
<linearGradient id="paint10_linear_107_2371" x1="20.279" y1="12.8196" x2="17.2699" y2="18.0313" gradientUnits="userSpaceOnUse">
<stop stop-color="#F0F0F0"/>
<stop offset="1" stop-color="#EAEAEA"/>
</linearGradient>
<linearGradient id="paint11_linear_107_2371" x1="18.1729" y1="6.29319" x2="19.9843" y2="8.97739" gradientUnits="userSpaceOnUse">
<stop stop-color="#E4E4E4"/>
<stop offset="0.958333" stop-color="#F9F9F9"/>
</linearGradient>
<linearGradient id="paint12_linear_107_2371" x1="19.2561" y1="12.1248" x2="19.9642" y2="8.99599" gradientUnits="userSpaceOnUse">
<stop stop-color="#BABABA"/>
<stop offset="1" stop-color="#FDFDFD"/>
</linearGradient>
<linearGradient id="paint13_linear_107_2371" x1="16.6095" y1="3.27814" x2="13.81" y2="1.92781" gradientUnits="userSpaceOnUse">
<stop stop-color="#DADADA"/>
<stop offset="1" stop-color="#EFEFEF"/>
</linearGradient>
<linearGradient id="paint14_linear_107_2371" x1="16.623" y1="3.10648" x2="17.9569" y2="6.07062" gradientUnits="userSpaceOnUse">
<stop stop-color="#D6D6D6"/>
<stop offset="1" stop-color="#FAFAFA"/>
</linearGradient>
<radialGradient id="paint15_radial_107_2371" cx="0" cy="0" r="1" gradientUnits="userSpaceOnUse" gradientTransform="translate(10.5008 10.6405) scale(7.34862)">
<stop offset="0.8428" stop-color="#E8E8E8"/>
<stop offset="1" stop-color="#BBBBBB"/>
</radialGradient>
<linearGradient id="paint16_linear_107_2371" x1="10.5008" y1="2.63561" x2="10.5008" y2="18.6458" gradientUnits="userSpaceOnUse">
<stop offset="0.0226" stop-color="#898989"/>
<stop offset="0.3764" stop-color="#FCFCFC"/>
<stop offset="1" stop-color="#E7E7E7"/>
</linearGradient>
<linearGradient id="paint17_linear_107_2371" x1="10.5009" y1="1.5878" x2="10.5009" y2="19.6403" gradientUnits="userSpaceOnUse">
<stop stop-color="white"/>
<stop offset="0.1799" stop-color="white"/>
<stop offset="0.24" stop-color="white"/>
<stop offset="0.2953" stop-color="#DCDCDC"/>
<stop offset="0.400942" stop-color="white"/>
<stop offset="0.401042" stop-color="#FFFDFA"/>
<stop offset="0.421875" stop-color="white"/>
<stop offset="0.46875" stop-color="white"/>
<stop offset="0.7613" stop-color="#FFFFFE"/>
<stop offset="1" stop-color="#EEE8E2"/>
</linearGradient>
</defs>
</svg>
