<svg width="98" height="84" viewBox="0 0 98 84" fill="none" xmlns="http://www.w3.org/2000/svg">
<path d="M48.9277 83.8525C43.2155 83.8525 37.8369 82.7581 32.792 80.5693C27.7471 78.4072 23.3027 75.4043 19.459 71.5605C15.6152 67.7168 12.599 63.2858 10.4102 58.2676C8.24805 53.2227 7.16699 47.8307 7.16699 42.0918C7.16699 36.3796 8.24805 31.0143 10.4102 25.9961C12.599 20.9512 15.6019 16.5068 19.4189 12.6631C23.2627 8.81934 27.707 5.81641 32.752 3.6543C37.7969 1.46549 43.1755 0.371094 48.8877 0.371094C54.5999 0.371094 59.9785 1.46549 65.0234 3.6543C70.0951 5.81641 74.5394 8.81934 78.3564 12.6631C82.2002 16.5068 85.2165 20.9512 87.4053 25.9961C89.5941 31.0143 90.6885 36.3796 90.6885 42.0918C90.6885 47.8307 89.5941 53.2227 87.4053 58.2676C85.2165 63.2858 82.2002 67.7168 78.3564 71.5605C74.5394 75.4043 70.1084 78.4072 65.0635 80.5693C60.0186 82.7581 54.64 83.8525 48.9277 83.8525ZM44.4834 61.9512C45.2842 61.9512 46.0182 61.7643 46.6855 61.3906C47.3796 60.9902 47.9668 60.443 48.4473 59.749L67.1455 30.8408C67.4391 30.387 67.6794 29.9066 67.8662 29.3994C68.0798 28.8923 68.1865 28.3851 68.1865 27.8779C68.1865 26.7568 67.7594 25.8493 66.9053 25.1553C66.0778 24.4613 65.1302 24.1143 64.0625 24.1143C62.6478 24.1143 61.46 24.875 60.499 26.3965L44.3633 52.1816L36.9561 42.8926C36.4222 42.2253 35.8883 41.7581 35.3545 41.4912C34.8206 41.1976 34.2201 41.0508 33.5527 41.0508C32.4316 41.0508 31.484 41.4512 30.71 42.252C29.9359 43.026 29.5488 43.9736 29.5488 45.0947C29.5488 45.6286 29.6423 46.1491 29.8291 46.6562C30.0426 47.1367 30.3363 47.6305 30.71 48.1377L40.3594 59.749C40.9466 60.4964 41.5739 61.057 42.2412 61.4307C42.9085 61.7777 43.6559 61.9512 44.4834 61.9512Z" fill="#41BF6C"/>
</svg>
