<svg width="35" height="32" viewBox="0 0 35 32" fill="none" xmlns="http://www.w3.org/2000/svg">
<path opacity="0.1" d="M34.016 16.0001C34.016 7.16357 26.5851 0.00012207 17.4187 0.00012207C8.25221 0.00012207 0.821335 7.16357 0.821335 16.0001C0.821335 24.8367 8.25221 32.0001 17.4187 32.0001C26.5851 32.0001 34.016 24.8367 34.016 16.0001Z" fill="#FF0066"/>
<path d="M17.5381 24.6191C16.3135 24.6191 15.1592 24.3848 14.0752 23.916C12.9971 23.4473 12.0449 22.7998 11.2188 21.9736C10.3926 21.1475 9.74512 20.1953 9.27637 19.1172C8.80762 18.0332 8.57324 16.8789 8.57324 15.6543C8.57324 14.4297 8.80762 13.2783 9.27637 12.2002C9.74512 11.1162 10.3896 10.1611 11.21 9.33496C12.0361 8.50879 12.9883 7.86133 14.0664 7.39258C15.1504 6.92383 16.3047 6.68945 17.5293 6.68945C18.7539 6.68945 19.9082 6.92383 20.9922 7.39258C22.0762 7.86133 23.0312 8.50879 23.8574 9.33496C24.6836 10.1611 25.3311 11.1162 25.7998 12.2002C26.2686 13.2783 26.5029 14.4297 26.5029 15.6543C26.5029 16.8789 26.2686 18.0332 25.7998 19.1172C25.3311 20.1953 24.6836 21.1475 23.8574 21.9736C23.0312 22.7998 22.0762 23.4473 20.9922 23.916C19.9141 24.3848 18.7627 24.6191 17.5381 24.6191ZM17.5381 23.125C18.5752 23.125 19.5449 22.9316 20.4473 22.5449C21.3496 22.1582 22.1436 21.625 22.8291 20.9453C23.5146 20.2598 24.0479 19.4658 24.4287 18.5635C24.8154 17.6611 25.0088 16.6914 25.0088 15.6543C25.0088 14.6172 24.8154 13.6475 24.4287 12.7451C24.042 11.8428 23.5059 11.0488 22.8203 10.3633C22.1406 9.67773 21.3467 9.14453 20.4385 8.76367C19.5361 8.37695 18.5664 8.18359 17.5293 8.18359C16.4922 8.18359 15.5225 8.37695 14.6201 8.76367C13.7178 9.14453 12.9268 9.67773 12.2471 10.3633C11.5674 11.0488 11.0342 11.8428 10.6475 12.7451C10.2666 13.6475 10.0762 14.6172 10.0762 15.6543C10.0762 16.6914 10.2666 17.6611 10.6475 18.5635C11.0342 19.4658 11.5674 20.2598 12.2471 20.9453C12.9326 21.625 13.7266 22.1582 14.6289 22.5449C15.5312 22.9316 16.501 23.125 17.5381 23.125ZM16.5713 19.8203C16.4248 19.8203 16.29 19.7881 16.167 19.7236C16.0498 19.6592 15.9355 19.5566 15.8242 19.416L13.6797 16.7793C13.5449 16.5977 13.4775 16.416 13.4775 16.2344C13.4775 16.041 13.542 15.877 13.6709 15.7422C13.8057 15.6016 13.9668 15.5312 14.1543 15.5312C14.2773 15.5312 14.3887 15.5576 14.4883 15.6104C14.5938 15.6572 14.6992 15.751 14.8047 15.8916L16.5361 18.1328L20.1836 12.2793C20.3477 12.0156 20.5527 11.8838 20.7988 11.8838C20.9805 11.8838 21.1445 11.9424 21.291 12.0596C21.4375 12.1768 21.5107 12.332 21.5107 12.5254C21.5107 12.625 21.4873 12.7246 21.4404 12.8242C21.3994 12.918 21.3525 13.0059 21.2998 13.0879L17.2832 19.416C17.1074 19.6855 16.8701 19.8203 16.5713 19.8203Z" fill="#FF0066"/>
</svg>
